<?xml version="1.0" encoding="UTF-8" standalone="no"?>
<svg
   xmlns:dc="http://purl.org/dc/elements/1.1/"
   xmlns:cc="http://creativecommons.org/ns#"
   xmlns:rdf="http://www.w3.org/1999/02/22-rdf-syntax-ns#"
   xmlns:svg="http://www.w3.org/2000/svg"
   xmlns="http://www.w3.org/2000/svg"
   xmlns:sodipodi="http://sodipodi.sourceforge.net/DTD/sodipodi-0.dtd"
   xmlns:inkscape="http://www.inkscape.org/namespaces/inkscape"
   width="420mm"
   height="297mm"
   viewBox="0 0 419.99999 297"
   version="1.1"
   id="svg3486"
   inkscape:version="0.91 r13725"
   sodipodi:docname="lasercutter_box.svg">
  <sodipodi:namedview
     pagecolor="#ffffff"
     bordercolor="#666666"
     borderopacity="1"
     objecttolerance="10"
     gridtolerance="10"
     guidetolerance="10"
     inkscape:pageopacity="0"
     inkscape:pageshadow="2"
     inkscape:window-width="2560"
     inkscape:window-height="1368"
     id="namedview3557"
     showgrid="false"
     inkscape:zoom="1.0542984"
     inkscape:cx="620.456"
     inkscape:cy="535.88635"
     inkscape:window-x="0"
     inkscape:window-y="35"
     inkscape:window-maximized="1"
     inkscape:current-layer="svg3486"
     showguides="true"
     inkscape:guide-bbox="true"
     inkscape:document-units="mm" />
  <metadata
     id="metadata3561">
    <rdf:RDF>
      <cc:Work
         rdf:about="">
        <dc:format>image/svg+xml</dc:format>
        <dc:type
           rdf:resource="http://purl.org/dc/dcmitype/StillImage" />
        <dc:title />
      </cc:Work>
    </rdf:RDF>
  </metadata>
  <defs
     id="defs3559" />
  <g
     id="g3615"
     inkscape:groupmode="layer"
     inkscape:label="newlayer"
     transform="translate(0,118.31642)" />
  <g
     id="g3793"
     transform="matrix(0,-1,1,0,11.037646,278.6636)">
    <path
       d="m 39,161.5 9.145769,0 0,-4 9.17,0 0,4 9.060769,0 0,-4 9.17,0 0,4 9.06077,0 0,-4 9.17,0 0,4 9.060772,0 0,-4 9.17,0 0,4 9.06077,0 0,-4 9.17,0 0,4 9.06077,0 0,-4 9.17,0 0,4 9.06076,0 0,-4 9.17,0 0,4 9.06077,0 0,-4 9.17,0 0,4 9.06077,0 0,-4 9.17,0 0,4 9.06077,0 0,-4 9.17,0 0,4 9.06077,0 0,-4 9.17,0 0,4 9.06077,0 0,-4 9.17,0 0,4 9.14577,0"
       style="fill:none;stroke:#000000"
       inkscape:label="part"
       id="path3617"
       inkscape:connector-curvature="0" />
    <path
       d="m 267,161.5 0,10.585 -4,0 0,8.83 4,0 0,10.585"
       style="fill:none;stroke:#000000"
       inkscape:label="part"
       id="path3619"
       inkscape:connector-curvature="0" />
    <path
       d="m 267,191.5 -9.14577,0 0,4 -9.17,0 0,-4 -9.06077,0 0,4 -9.17,0 0,-4 -9.06077,0 0,4 -9.17,0 0,-4 -9.06077,0 0,4 -9.17,0 0,-4 -9.06077,0 0,4 -9.17,0 0,-4 -9.06077,0 0,4 -9.17,0 0,-4 -9.06076,0 0,4 -9.17,0 0,-4 -9.06077,0 0,4 -9.17,0 0,-4 -9.06077,0 0,4 -9.17,0 0,-4 -9.060772,0 0,4 -9.17,0 0,-4 -9.06077,0 0,4 -9.17,0 0,-4 -9.060769,0 0,4 -9.17,0 0,-4 L 39,191.5"
       style="fill:none;stroke:#000000"
       inkscape:label="part"
       id="path3621"
       inkscape:connector-curvature="0" />
    <path
       d="m 39,191.5 0,-10.585 4,0 0,-8.83 -4,0 0,-10.585"
       style="fill:none;stroke:#000000"
       inkscape:label="part"
       id="path3623"
       inkscape:connector-curvature="0" />
  </g>
  <g
     id="g3781"
     transform="matrix(0,-1,1,0,11.037646,278.6636)">
    <path
       d="m 4.5,43 10.415,0 0,-4 9.17,0 0,4 10.415,0"
       style="fill:none;stroke:#000000"
       inkscape:label="part"
       id="path3625"
       inkscape:connector-curvature="0" />
    <path
       d="m 34.5,43 0,5.057857 4,0 0,9.17 -4,0 0,8.972857 4,0 0,9.17 -4,0 0,8.972857 4,0 0,9.17 -4,0 0,8.972859 4,0 0,9.17 -4,0 0,8.97286 4,0 0,9.17 -4,0 0,8.97285 4,0 0,9.17 -4,0 0,5.05786"
       style="fill:none;stroke:#000000"
       inkscape:label="part"
       id="path3627"
       inkscape:connector-curvature="0" />
    <path
       d="m 34.5,153 -10.415,0 0,4 -9.17,0 0,-4 -10.415,0"
       style="fill:none;stroke:#000000"
       inkscape:label="part"
       id="path3629"
       inkscape:connector-curvature="0" />
    <path
       d="m 4.5,153 0,-5.05786 -4,0 0,-9.17 4,0 0,-8.97285 -4,0 0,-9.17 4,0 0,-8.97286 -4,0 0,-9.17 4,0 0,-8.972859 -4,0 0,-9.17 4,0 0,-8.972857 -4,0 0,-9.17 4,0 0,-8.972857 -4,0 0,-9.17 4,0 L 4.5,43"
       style="fill:none;stroke:#000000"
       inkscape:label="part"
       id="path3631"
       inkscape:connector-curvature="0" />
  </g>
  <g
     id="g3971">
    <g
       style="stroke:#000000"
       id="g3895">
      <path
         transform="scale(1,-1)"
         style="fill:none;stroke:#000000;stroke-width:0.34999999;stroke-miterlimit:4;stroke-dasharray:none"
         d="m 149.03764,-187.88702 a 1.5,1.5 0 0 1 -1.5,1.5 1.5,1.5 0 0 1 -1.5,-1.5 1.5,1.5 0 0 1 1.5,-1.5 1.5,1.5 0 0 1 1.5,1.5 z"
         id="circle3491"
         inkscape:connector-curvature="0" />
      <path
         transform="scale(1,-1)"
         style="fill:none;stroke:#000000;stroke-width:0.34999999;stroke-miterlimit:4;stroke-dasharray:none"
         d="m 149.03764,-18.887011 a 1.5,1.5 0 0 1 -1.5,1.5 1.5,1.5 0 0 1 -1.5,-1.5 1.5,1.5 0 0 1 1.5,-1.5 1.5,1.5 0 0 1 1.5,1.5 z"
         id="circle3503"
         inkscape:connector-curvature="0" />
      <path
         transform="scale(1,-1)"
         style="fill:none;stroke:#000000;stroke-width:0.34999999;stroke-miterlimit:4;stroke-dasharray:none"
         d="m 72.037651,-187.88702 a 1.5,1.5 0 0 1 -1.5,1.5 1.5,1.5 0 0 1 -1.5,-1.5 1.5,1.5 0 0 1 1.5,-1.5 1.5,1.5 0 0 1 1.5,1.5 z"
         id="circle3515"
         inkscape:connector-curvature="0" />
      <path
         transform="scale(1,-1)"
         style="fill:none;stroke:#000000;stroke-width:0.34999999;stroke-miterlimit:4;stroke-dasharray:none"
         d="m 72.037651,-18.887011 a 1.5,1.5 0 0 1 -1.5,1.5 1.5,1.5 0 0 1 -1.5,-1.5 1.5,1.5 0 0 1 1.5,-1.5 1.5,1.5 0 0 1 1.5,1.5 z"
         id="circle3527"
         inkscape:connector-curvature="0" />
      <g
         style="fill:none;stroke:#000000"
         transform="matrix(1,0,0,-1,79.037648,178.88701)"
         id="Box020">
        <path
           inkscape:connector-curvature="0"
           style="fill:none;fill-rule:evenodd;stroke:#000000;stroke-width:0.34999999;stroke-miterlimit:4;stroke-dasharray:none"
           d="M 0,92 0,0 0,0 0,92 0,92 Z"
           id="Box020_f0000" />
        <path
           inkscape:connector-curvature="0"
           style="fill:none;fill-rule:evenodd;stroke:#000000;stroke-width:0.34999999;stroke-miterlimit:4;stroke-dasharray:none"
           d="m 60,0 0,0 0,92 0,0 0,-92 z"
           id="Box020_f0001" />
        <path
           inkscape:connector-curvature="0"
           style="fill:none;fill-rule:evenodd;stroke:#000000;stroke-width:0.34999999;stroke-miterlimit:4;stroke-dasharray:none"
           d="M 0,0 0,0 60,0 60,0 0,0 Z"
           id="Box020_f0002" />
        <path
           inkscape:connector-curvature="0"
           style="fill:none;fill-rule:evenodd;stroke:#000000;stroke-width:0.34999999;stroke-miterlimit:4;stroke-dasharray:none"
           d="m 60,92 -60,0 0,0 60,0 0,0 z"
           id="Box020_f0003" />
        <path
           inkscape:connector-curvature="0"
           style="fill:none;fill-rule:evenodd;stroke:#000000;stroke-width:0.34999999;stroke-miterlimit:4;stroke-dasharray:none"
           d="M 60,0 0,0 0,92 60,92 60,0 Z"
           id="Box020_f0004" />
        <path
           inkscape:connector-curvature="0"
           style="fill:none;fill-rule:evenodd;stroke:#000000;stroke-width:0.34999999;stroke-miterlimit:4;stroke-dasharray:none"
           d="M 0,92 0,0 60,0 60,92 0,92 Z"
           id="Box020_f0005" />
        <title
           id="title3546">AussparungLasercutBox001</title>
      </g>
      <g
         style="fill:none;stroke:#000000"
         transform="matrix(1,0,0,-1,79.037648,178.88701)"
         id="Box019">
        <path
           inkscape:connector-curvature="0"
           style="fill:none;fill-rule:evenodd;stroke:#000000;stroke-width:0.34999999;stroke-miterlimit:4;stroke-dasharray:none"
           d="m -6,162 0,-63 0,0 0,63 0,0 z"
           id="Box019_f0000" />
        <path
           inkscape:connector-curvature="0"
           style="fill:none;fill-rule:evenodd;stroke:#000000;stroke-width:0.34999999;stroke-miterlimit:4;stroke-dasharray:none"
           d="m 66,99 0,0 0,63 0,0 0,-63 z"
           id="Box019_f0001" />
        <path
           inkscape:connector-curvature="0"
           style="fill:none;fill-rule:evenodd;stroke:#000000;stroke-width:0.34999999;stroke-miterlimit:4;stroke-dasharray:none"
           d="m -6,99 0,0 72,0 0,0 -72,0 z"
           id="Box019_f0002" />
        <path
           inkscape:connector-curvature="0"
           style="fill:none;fill-rule:evenodd;stroke:#000000;stroke-width:0.34999999;stroke-miterlimit:4;stroke-dasharray:none"
           d="m 66,162 -72,0 0,0 72,0 0,0 z"
           id="Box019_f0003" />
        <path
           inkscape:connector-curvature="0"
           style="fill:none;fill-rule:evenodd;stroke:#000000;stroke-width:0.34999999;stroke-miterlimit:4;stroke-dasharray:none"
           d="m 66,99 -72,0 0,63 72,0 0,-63 z"
           id="Box019_f0004" />
        <path
           inkscape:connector-curvature="0"
           style="fill:none;fill-rule:evenodd;stroke:#000000;stroke-width:0.34999999;stroke-miterlimit:4;stroke-dasharray:none"
           d="m -6,162 0,-63 72,0 0,63 -72,0 z"
           id="Box019_f0005" />
        <title
           id="title3555">AussparungLasercutBox</title>
      </g>
    </g>
    <g
       id="g3574">
      <path
         inkscape:connector-curvature="0"
         id="path3633"
         inkscape:label="part"
         style="fill:none;stroke:#000000"
         d="m 50.037646,239.6636 0,-9.31577 4,0 0,-8.83 -4,0 0,-9.40077 4,0 0,-8.83 -4,0 0,-9.40077 4,0 0,-8.83 -4,0 0,-9.40077 4,0 0,-8.83 -4,0 0,-9.40077 4,0 0,-8.83 -4,0 0,-9.40077 4,0 0,-8.83 -4,0 0,-9.40076 4,0 0,-8.83 -4,0 0,-9.40077 4,0 0,-8.83 -4,0 0,-9.40077 4,0 0,-8.83 -4,0 0,-9.40077 4,0 0,-8.83 -4,0 0,-9.40077 4,0 0,-8.83 -4,0 0,-9.40077 4,0 0,-8.83 -4,0 0,-9.31577" />
      <path
         id="path3635"
         inkscape:label="part"
         style="fill:none;stroke:#000000"
         d="m 50.037646,11.6636 9.227857,0 0,4 8.83,0 0,-4 81.884287,0 0,4 8.83,0 0,-4 9.22786,0"
         inkscape:connector-curvature="0"
         sodipodi:nodetypes="cccccccccc" />
      <path
         inkscape:connector-curvature="0"
         id="path3637"
         inkscape:label="part"
         style="fill:none;stroke:#000000"
         d="m 168.03765,11.6636 0,9.31577 -4,0 0,8.83 4,0 0,9.40077 -4,0 0,8.83 4,0 0,9.40077 -4,0 0,8.83 4,0 0,9.40077 -4,0 0,8.83 4,0 0,9.40077 -4,0 0,8.83 4,0 0,9.40077 -4,0 0,8.83 4,0 0,9.40076 -4,0 0,8.83 4,0 0,9.40077 -4,0 0,8.83 4,0 0,9.40077 -4,0 0,8.83 4,0 0,9.40077 -4,0 0,8.83 4,0 0,9.40077 -4,0 0,8.83 4,0 0,9.40077 -4,0 0,8.83 4,0 0,9.31577" />
      <path
         inkscape:connector-curvature="0"
         id="path3639"
         inkscape:label="part"
         style="fill:none;stroke:#000000"
         d="m 168.03765,239.6636 -9.22786,0 0,-4 -8.83,0 0,4 -9.31285,0 0,-4 -8.83,0 0,4 -9.31286,0 0,-4 -8.83,0 0,4 -9.31286,0 0,-4 -8.830003,0 0,4 -9.312857,0 0,-4 -8.83,0 0,4 -9.312857,0 0,-4 -8.83,0 0,4 -9.227857,0" />
    </g>
  </g>
  <g
     id="g3799"
     transform="matrix(0,-1,1,0,167.90235,546.37991)">
    <path
       d="m 271.5,43 10.415,0 0,-4 9.17,0 0,4 10.415,0"
       style="fill:none;stroke:#000000"
       inkscape:label="part"
       id="path3641"
       inkscape:connector-curvature="0" />
    <path
       d="m 301.5,43 0,5.057857 4,0 0,9.17 -4,0 0,8.972857 4,0 0,9.17 -4,0 0,8.972857 4,0 0,9.17 -4,0 0,8.972859 4,0 0,9.17 -4,0 0,8.97286 4,0 0,9.17 -4,0 0,8.97285 4,0 0,9.17 -4,0 0,5.05786"
       style="fill:none;stroke:#000000"
       inkscape:label="part"
       id="path3643"
       inkscape:connector-curvature="0" />
    <path
       d="m 301.5,153 -10.415,0 0,4 -9.17,0 0,-4 -10.415,0"
       style="fill:none;stroke:#000000"
       inkscape:label="part"
       id="path3645"
       inkscape:connector-curvature="0" />
    <path
       sodipodi:nodetypes="cccccccccc"
       inkscape:connector-curvature="0"
       d="m 271.5,153 0,-5.05786 -4,0 0,-9.17 4,0 0,-81.544283 -4,0 0,-9.17 4,0 L 271.5,43"
       style="fill:none;stroke:#000000"
       inkscape:label="part"
       id="path3647" />
  </g>
  <g
     id="g3787"
     transform="matrix(0,-1,1,0,11.037646,278.6636)">
    <path
       d="m 39,4.5 9.145769,0 0,-4 9.17,0 0,4 9.060769,0 0,-4 9.17,0 0,4 9.06077,0 0,-4 9.17,0 0,4 9.060772,0 0,-4 9.17,0 0,4 9.06077,0 0,-4 9.17,0 0,4 9.06077,0 0,-4 9.17,0 0,4 9.06076,0 0,-4 9.17,0 0,4 9.06077,0 0,-4 9.17,0 0,4 9.06077,0 0,-4 9.17,0 0,4 9.06077,0 0,-4 9.17,0 0,4 9.06077,0 0,-4 9.17,0 0,4 9.06077,0 0,-4 9.17,0 0,4 9.14577,0"
       style="fill:none;stroke:#000000"
       inkscape:label="part"
       id="path3657"
       inkscape:connector-curvature="0" />
    <path
       d="m 267,4.5 0,10.585 -4,0 0,8.83 4,0 0,10.585"
       style="fill:none;stroke:#000000"
       inkscape:label="part"
       id="path3659"
       inkscape:connector-curvature="0" />
    <path
       d="m 267,34.5 -9.14577,0 0,4 -9.17,0 0,-4 -9.06077,0 0,4 -9.17,0 0,-4 -9.06077,0 0,4 -9.17,0 0,-4 -9.06077,0 0,4 -9.17,0 0,-4 -9.06077,0 0,4 -9.17,0 0,-4 -9.06077,0 0,4 -9.17,0 0,-4 -9.06076,0 0,4 -9.17,0 0,-4 -9.06077,0 0,4 -9.17,0 0,-4 -9.06077,0 0,4 -9.17,0 0,-4 -9.060772,0 0,4 -9.17,0 0,-4 -9.06077,0 0,4 -9.17,0 0,-4 -9.060769,0 0,4 -9.17,0 0,-4 L 39,34.5"
       style="fill:none;stroke:#000000"
       inkscape:label="part"
       id="path3661"
       inkscape:connector-curvature="0" />
    <path
       d="m 39,34.5 0,-10.585 4,0 0,-8.83 -4,0 L 39,4.5"
       style="fill:none;stroke:#000000"
       inkscape:label="part"
       id="path3663"
       inkscape:connector-curvature="0" />
  </g>
  <g
     id="g3634">
    <path
       d="m 206.90235,239.81547 0,-9.31577 4,0 0,-8.83 -4,0 0,-9.40077 4,0 0,-8.83 -4,0 0,-9.40077 4,0 0,-8.83 -4,0 0,-9.40077 4,0 0,-8.83 -4,0 0,-9.40077 4,0 0,-8.83 -4,0 0,-9.40077 4,0 0,-8.83 -4,0 0,-9.40076 4,0 0,-8.83 -4,0 0,-9.40077 4,0 0,-8.83 -4,0 0,-9.40077 4,0 0,-8.83 -4,0 0,-9.40077 4,0 0,-8.83 -4,0 0,-9.40077 4,0 0,-8.83 -4,0 0,-9.40077 4,0 0,-8.83 -4,0 0,-9.31577"
       style="fill:none;stroke:#000000"
       inkscape:label="part"
       id="path3649"
       inkscape:connector-curvature="0" />
    <path
       d="m 206.90235,11.81547 9.22786,0 0,4 8.83,0 0,-4 9.31285,0 0,4 8.83,0 0,-4 9.31286,0 0,4 8.83,0 0,-4 9.31286,0 0,4 8.83,0 0,-4 9.31286,0 0,4 8.83,0 0,-4 9.31285,0 0,4 8.83,0 0,-4 9.22786,0"
       style="fill:none;stroke:#000000"
       inkscape:label="part"
       id="path3651"
       inkscape:connector-curvature="0" />
    <path
       d="m 324.90235,11.81547 0,9.31577 -4,0 0,8.83 4,0 0,9.40077 -4,0 0,8.83 4,0 0,9.40077 -4,0 0,8.83 4,0 0,9.40077 -4,0 0,8.83 4,0 0,9.40077 -4,0 0,8.83 4,0 0,9.40077 -4,0 0,8.83 4,0 0,9.40076 -4,0 0,8.83 4,0 0,9.40077 -4,0 0,8.83 4,0 0,9.40077 -4,0 0,8.83 4,0 0,9.40077 -4,0 0,8.83 4,0 0,9.40077 -4,0 0,8.83 4,0 0,9.40077 -4,0 0,8.83 4,0 0,9.31577"
       style="fill:none;stroke:#000000"
       inkscape:label="part"
       id="path3653"
       inkscape:connector-curvature="0" />
    <path
       d="m 324.90235,239.81547 -9.22786,0 0,-4 -8.83,0 0,4 -9.31285,0 0,-4 -8.83,0 0,4 -9.31286,0 0,-4 -8.83,0 0,4 -9.31286,0 0,-4 -8.83,0 0,4 -9.31286,0 0,-4 -8.83,0 0,4 -9.31285,0 0,-4 -8.83,0 0,4 -9.22786,0"
       style="fill:none;stroke:#000000"
       inkscape:label="part"
       id="path3655"
       inkscape:connector-curvature="0" />
  </g>
  <g
     id="g3628"
     transform="translate(0,20.319991)">
    <rect
       transform="matrix(0,-1,1,0,0,0)"
       y="206.45235"
       x="-183.41548"
       height="59.900002"
       width="115.20001"
       id="rect3740"
       style="color:#000000;display:inline;overflow:visible;visibility:visible;opacity:1;fill:none;fill-opacity:1;fill-rule:evenodd;stroke:#00ff00;stroke-width:0.10000002;stroke-linecap:butt;stroke-linejoin:miter;stroke-miterlimit:4;stroke-dasharray:none;stroke-dashoffset:0;stroke-opacity:1;marker:none;enable-background:accumulate" />
    <path
       inkscape:connector-curvature="0"
       id="path3742"
       d="m -170.21544,255.95235 a 3.1000001,3.0999999 0 0 1 -3.1,3.1 3.1000001,3.0999999 0 0 1 -3.10001,-3.1 3.1000001,3.0999999 0 0 1 3.10001,-3.1 3.1000001,3.0999999 0 0 1 3.1,3.1 z"
       style="color:#000000;display:inline;overflow:visible;visibility:visible;opacity:1;fill:none;fill-opacity:1;fill-rule:evenodd;stroke:#000000;stroke-width:0.10000002;stroke-linecap:butt;stroke-linejoin:miter;stroke-miterlimit:4;stroke-dasharray:none;stroke-dashoffset:0;stroke-opacity:1;marker:none;enable-background:accumulate"
       transform="matrix(0,-1,1,0,0,0)" />
    <path
       inkscape:connector-curvature="0"
       id="ellipse3744"
       d="m -75.515463,256.40234 a 3.1000001,3.0999999 0 0 1 -3.1,3.1 3.1000001,3.0999999 0 0 1 -3.1,-3.1 3.1000001,3.0999999 0 0 1 3.1,-3.1 3.1000001,3.0999999 0 0 1 3.1,3.1 z"
       style="color:#000000;display:inline;overflow:visible;visibility:visible;opacity:1;fill:none;fill-opacity:1;fill-rule:evenodd;stroke:#000000;stroke-width:0.09999999;stroke-linecap:butt;stroke-linejoin:miter;stroke-miterlimit:4;stroke-dasharray:none;stroke-dashoffset:0;stroke-opacity:1;marker:none;enable-background:accumulate"
       transform="matrix(0,-1,1,0,0,0)" />
    <path
       inkscape:connector-curvature="0"
       id="ellipse3746"
       d="m -105.71548,236.25235 a 3.1000001,3.0999999 0 0 1 -3.1,3.1 3.1000001,3.0999999 0 0 1 -3.1,-3.1 3.1000001,3.0999999 0 0 1 3.1,-3.1 3.1000001,3.0999999 0 0 1 3.1,3.1 z"
       style="color:#000000;display:inline;overflow:visible;visibility:visible;opacity:1;fill:none;fill-opacity:1;fill-rule:evenodd;stroke:#000000;stroke-width:0.09999999;stroke-linecap:butt;stroke-linejoin:miter;stroke-miterlimit:4;stroke-dasharray:none;stroke-dashoffset:0;stroke-opacity:1;marker:none;enable-background:accumulate"
       transform="matrix(0,-1,1,0,0,0)" />
  </g>
  <g
     id="g3608"
     transform="matrix(1,0,0,1.2490572,156.8647,256.66125)">
    <rect
       y="8.9034042"
       x="144.08765"
       height="1.9"
       width="6.9000001"
       id="rect3503"
       style="color:#000000;display:inline;overflow:visible;visibility:visible;opacity:1;fill:none;fill-opacity:1;fill-rule:evenodd;stroke:#000000;stroke-width:0.08947647;stroke-linecap:butt;stroke-linejoin:miter;stroke-miterlimit:4;stroke-dasharray:none;stroke-dashoffset:0;stroke-opacity:1;marker:none;enable-background:accumulate" />
    <rect
       style="color:#000000;display:inline;overflow:visible;visibility:visible;opacity:1;fill:none;fill-opacity:1;fill-rule:evenodd;stroke:#000000;stroke-width:0.08947647;stroke-linecap:butt;stroke-linejoin:miter;stroke-miterlimit:4;stroke-dasharray:none;stroke-dashoffset:0;stroke-opacity:1;marker:none;enable-background:accumulate"
       id="rect3550"
       width="6.9000001"
       height="1.9"
       x="67.087654"
       y="8.9034042" />
  </g>
  <path
     style="color:#000000;display:inline;overflow:visible;visibility:visible;opacity:1;fill:none;fill-opacity:1;fill-rule:evenodd;stroke:#000000;stroke-width:0.10000001;stroke-linecap:butt;stroke-linejoin:miter;stroke-miterlimit:4;stroke-dasharray:none;stroke-dashoffset:0;stroke-opacity:1;marker:none;enable-background:accumulate"
     d="m 227.34925,223.43487 a 4.9499998,4.9499998 0 0 1 -4.95,4.95 4.9499998,4.9499998 0 0 1 -4.95,-4.95 4.9499998,4.9499998 0 0 1 4.95,-4.95 4.9499998,4.9499998 0 0 1 4.95,4.95 z"
     id="path3402"
     inkscape:connector-curvature="0" />
  <rect
     style="color:#000000;display:inline;overflow:visible;visibility:visible;opacity:1;fill:none;fill-opacity:1;fill-rule:evenodd;stroke:#000000;stroke-width:0.1;stroke-linecap:butt;stroke-linejoin:miter;stroke-miterlimit:4;stroke-dasharray:none;stroke-dashoffset:0;stroke-opacity:1;marker:none;enable-background:accumulate"
     id="rect3415"
     width="14.900001"
     height="8.8999996"
     x="259.38892"
     y="218.98486" />
  <g
     id="g3431">
    <path
       inkscape:connector-curvature="0"
       id="path3417"
       d="m 33.487646,54.414486 a 2.95,5.9500003 0 0 1 -2.95,5.95 2.95,5.9500003 0 0 1 -2.95,-5.95 2.95,5.9500003 0 0 1 2.95,-5.95 2.95,5.9500003 0 0 1 2.95,5.95 z"
       style="color:#000000;display:inline;overflow:visible;visibility:visible;opacity:1;fill:none;fill-opacity:1;fill-rule:evenodd;stroke:#000000;stroke-width:0.1;stroke-linecap:butt;stroke-linejoin:miter;stroke-miterlimit:4;stroke-dasharray:none;stroke-dashoffset:0;stroke-opacity:1;marker:none;enable-background:accumulate" />
    <path
       inkscape:connector-curvature="0"
       id="ellipse3421"
       d="m 33.487646,94.41449 a 2.95,5.9500003 0 0 1 -2.95,5.95 2.95,5.9500003 0 0 1 -2.95,-5.95 2.95,5.9500003 0 0 1 2.95,-5.950001 2.95,5.9500003 0 0 1 2.95,5.950001 z"
       style="color:#000000;display:inline;overflow:visible;visibility:visible;opacity:1;fill:none;fill-opacity:1;fill-rule:evenodd;stroke:#000000;stroke-width:0.1;stroke-linecap:butt;stroke-linejoin:miter;stroke-miterlimit:4;stroke-dasharray:none;stroke-dashoffset:0;stroke-opacity:1;marker:none;enable-background:accumulate" />
    <path
       inkscape:connector-curvature="0"
       id="ellipse3423"
       d="m 33.487646,134.41449 a 2.95,5.9500003 0 0 1 -2.95,5.95 2.95,5.9500003 0 0 1 -2.95,-5.95 2.95,5.9500003 0 0 1 2.95,-5.95 2.95,5.9500003 0 0 1 2.95,5.95 z"
       style="color:#000000;display:inline;overflow:visible;visibility:visible;opacity:1;fill:none;fill-opacity:1;fill-rule:evenodd;stroke:#000000;stroke-width:0.1;stroke-linecap:butt;stroke-linejoin:miter;stroke-miterlimit:4;stroke-dasharray:none;stroke-dashoffset:0;stroke-opacity:1;marker:none;enable-background:accumulate" />
    <path
       inkscape:connector-curvature="0"
       id="ellipse3425"
       d="m 33.487646,174.41449 a 2.95,5.9500003 0 0 1 -2.95,5.95 2.95,5.9500003 0 0 1 -2.95,-5.95 2.95,5.9500003 0 0 1 2.95,-5.95 2.95,5.9500003 0 0 1 2.95,5.95 z"
       style="color:#000000;display:inline;overflow:visible;visibility:visible;opacity:1;fill:none;fill-opacity:1;fill-rule:evenodd;stroke:#000000;stroke-width:0.1;stroke-linecap:butt;stroke-linejoin:miter;stroke-miterlimit:4;stroke-dasharray:none;stroke-dashoffset:0;stroke-opacity:1;marker:none;enable-background:accumulate" />
  </g>
  <g
     id="g3437"
     transform="translate(157,0)">
    <path
       style="color:#000000;display:inline;overflow:visible;visibility:visible;opacity:1;fill:none;fill-opacity:1;fill-rule:evenodd;stroke:#000000;stroke-width:0.1;stroke-linecap:butt;stroke-linejoin:miter;stroke-miterlimit:4;stroke-dasharray:none;stroke-dashoffset:0;stroke-opacity:1;marker:none;enable-background:accumulate"
       d="m 33.487646,54.414486 a 2.95,5.9500003 0 0 1 -2.95,5.95 2.95,5.9500003 0 0 1 -2.95,-5.95 2.95,5.9500003 0 0 1 2.95,-5.95 2.95,5.9500003 0 0 1 2.95,5.95 z"
       id="path3439"
       inkscape:connector-curvature="0" />
    <path
       style="color:#000000;display:inline;overflow:visible;visibility:visible;opacity:1;fill:none;fill-opacity:1;fill-rule:evenodd;stroke:#000000;stroke-width:0.1;stroke-linecap:butt;stroke-linejoin:miter;stroke-miterlimit:4;stroke-dasharray:none;stroke-dashoffset:0;stroke-opacity:1;marker:none;enable-background:accumulate"
       d="m 33.487646,94.41449 a 2.95,5.9500003 0 0 1 -2.95,5.95 2.95,5.9500003 0 0 1 -2.95,-5.95 2.95,5.9500003 0 0 1 2.95,-5.950001 2.95,5.9500003 0 0 1 2.95,5.950001 z"
       id="path3441"
       inkscape:connector-curvature="0" />
    <path
       style="color:#000000;display:inline;overflow:visible;visibility:visible;opacity:1;fill:none;fill-opacity:1;fill-rule:evenodd;stroke:#000000;stroke-width:0.1;stroke-linecap:butt;stroke-linejoin:miter;stroke-miterlimit:4;stroke-dasharray:none;stroke-dashoffset:0;stroke-opacity:1;marker:none;enable-background:accumulate"
       d="m 33.487646,134.41449 a 2.95,5.9500003 0 0 1 -2.95,5.95 2.95,5.9500003 0 0 1 -2.95,-5.95 2.95,5.9500003 0 0 1 2.95,-5.95 2.95,5.9500003 0 0 1 2.95,5.95 z"
       id="path3443"
       inkscape:connector-curvature="0" />
    <path
       style="color:#000000;display:inline;overflow:visible;visibility:visible;opacity:1;fill:none;fill-opacity:1;fill-rule:evenodd;stroke:#000000;stroke-width:0.1;stroke-linecap:butt;stroke-linejoin:miter;stroke-miterlimit:4;stroke-dasharray:none;stroke-dashoffset:0;stroke-opacity:1;marker:none;enable-background:accumulate"
       d="m 33.487646,174.41449 a 2.95,5.9500003 0 0 1 -2.95,5.95 2.95,5.9500003 0 0 1 -2.95,-5.95 2.95,5.9500003 0 0 1 2.95,-5.95 2.95,5.9500003 0 0 1 2.95,5.95 z"
       id="path3445"
       inkscape:connector-curvature="0" />
  </g>
</svg>
