<?xml version="1.0" encoding="UTF-8" standalone="no"?>
<svg
   xmlns:dc="http://purl.org/dc/elements/1.1/"
   xmlns:cc="http://creativecommons.org/ns#"
   xmlns:rdf="http://www.w3.org/1999/02/22-rdf-syntax-ns#"
   xmlns:svg="http://www.w3.org/2000/svg"
   xmlns="http://www.w3.org/2000/svg"
   xmlns:sodipodi="http://sodipodi.sourceforge.net/DTD/sodipodi-0.dtd"
   xmlns:inkscape="http://www.inkscape.org/namespaces/inkscape"
   width="420mm"
   height="297mm"
   viewBox="0 0 419.99999 297"
   version="1.1"
   id="svg3486"
   inkscape:version="0.91 r13725"
   sodipodi:docname="lasercutter_box.svg">
  <sodipodi:namedview
     pagecolor="#ffffff"
     bordercolor="#666666"
     borderopacity="1"
     objecttolerance="10"
     gridtolerance="10"
     guidetolerance="10"
     inkscape:pageopacity="0"
     inkscape:pageshadow="2"
     inkscape:window-width="2560"
     inkscape:window-height="1368"
     id="namedview3557"
     showgrid="false"
     inkscape:zoom="1.0542984"
     inkscape:cx="620.456"
     inkscape:cy="497.94643"
     inkscape:window-x="0"
     inkscape:window-y="35"
     inkscape:window-maximized="1"
     inkscape:current-layer="svg3486"
     showguides="true"
     inkscape:guide-bbox="true"
     inkscape:document-units="mm" />
  <metadata
     id="metadata3561">
    <rdf:RDF>
      <cc:Work
         rdf:about="">
        <dc:format>image/svg+xml</dc:format>
        <dc:type
           rdf:resource="http://purl.org/dc/dcmitype/StillImage" />
        <dc:title />
      </cc:Work>
    </rdf:RDF>
  </metadata>
  <defs
     id="defs3559" />
  <g
     id="g3615"
     inkscape:groupmode="layer"
     inkscape:label="newlayer"
     transform="translate(0,118.31642)" />
  <g
     id="g3793"
     transform="matrix(0,-1,1,0,11.037646,278.6636)">
    <path
       d="m 39,161.5 9.145769,0 0,-4 9.17,0 0,4 9.060769,0 0,-4 9.17,0 0,4 9.06077,0 0,-4 9.17,0 0,4 9.060772,0 0,-4 9.17,0 0,4 9.06077,0 0,-4 9.17,0 0,4 9.06077,0 0,-4 9.17,0 0,4 9.06076,0 0,-4 9.17,0 0,4 9.06077,0 0,-4 9.17,0 0,4 9.06077,0 0,-4 9.17,0 0,4 9.06077,0 0,-4 9.17,0 0,4 9.06077,0 0,-4 9.17,0 0,4 9.06077,0 0,-4 9.17,0 0,4 9.14577,0"
       style="fill:none;stroke:#000000"
       inkscape:label="part"
       id="path3617"
       inkscape:connector-curvature="0" />
    <path
       d="m 267,161.5 0,10.585 -4,0 0,8.83 4,0 0,10.585"
       style="fill:none;stroke:#000000"
       inkscape:label="part"
       id="path3619"
       inkscape:connector-curvature="0" />
    <path
       d="m 267,191.5 -9.14577,0 0,4 -9.17,0 0,-4 -9.06077,0 0,4 -9.17,0 0,-4 -9.06077,0 0,4 -9.17,0 0,-4 -9.06077,0 0,4 -9.17,0 0,-4 -9.06077,0 0,4 -9.17,0 0,-4 -9.06077,0 0,4 -9.17,0 0,-4 -9.06076,0 0,4 -9.17,0 0,-4 -9.06077,0 0,4 -9.17,0 0,-4 -9.06077,0 0,4 -9.17,0 0,-4 -9.060772,0 0,4 -9.17,0 0,-4 -9.06077,0 0,4 -9.17,0 0,-4 -9.060769,0 0,4 -9.17,0 0,-4 L 39,191.5"
       style="fill:none;stroke:#000000"
       inkscape:label="part"
       id="path3621"
       inkscape:connector-curvature="0" />
    <path
       d="m 39,191.5 0,-10.585 4,0 0,-8.83 -4,0 0,-10.585"
       style="fill:none;stroke:#000000"
       inkscape:label="part"
       id="path3623"
       inkscape:connector-curvature="0" />
  </g>
  <g
     id="g3781"
     transform="matrix(0,-1,1,0,-27.462354,278.6636)">
    <path
       d="m 4.5,43 10.415,0 0,-4 9.17,0 0,4 10.415,0"
       style="fill:none;stroke:#000000"
       inkscape:label="part"
       id="path3625"
       inkscape:connector-curvature="0" />
    <path
       d="m 34.5,43 0,5.057857 4,0 0,9.17 -4,0 0,8.972857 4,0 0,9.17 -4,0 0,8.972857 4,0 0,9.17 -4,0 0,8.972859 4,0 0,9.17 -4,0 0,8.97286 4,0 0,9.17 -4,0 0,8.97285 4,0 0,9.17 -4,0 0,5.05786"
       style="fill:none;stroke:#000000"
       inkscape:label="part"
       id="path3627"
       inkscape:connector-curvature="0" />
    <path
       d="m 34.5,153 -10.415,0 0,4 -9.17,0 0,-4 -10.415,0"
       style="fill:none;stroke:#000000"
       inkscape:label="part"
       id="path3629"
       inkscape:connector-curvature="0" />
    <path
       d="m 4.5,153 0,-5.05786 -4,0 0,-9.17 4,0 0,-8.97285 -4,0 0,-9.17 4,0 0,-8.97286 -4,0 0,-9.17 4,0 0,-8.972859 -4,0 0,-9.17 4,0 0,-8.972857 -4,0 0,-9.17 4,0 0,-8.972857 -4,0 0,-9.17 4,0 L 4.5,43"
       style="fill:none;stroke:#000000"
       inkscape:label="part"
       id="path3631"
       inkscape:connector-curvature="0" />
  </g>
  <g
     id="g3971">
    <g
       style="stroke:#000000"
       id="g3895">
      <path
         transform="scale(1,-1)"
         style="fill:none;stroke:#000000;stroke-width:0.34999999;stroke-miterlimit:4;stroke-dasharray:none"
         d="m 149.03764,-187.88702 a 1.5,1.5 0 0 1 -1.5,1.5 1.5,1.5 0 0 1 -1.5,-1.5 1.5,1.5 0 0 1 1.5,-1.5 1.5,1.5 0 0 1 1.5,1.5 z"
         id="circle3491"
         inkscape:connector-curvature="0" />
      <path
         transform="scale(1,-1)"
         style="fill:none;stroke:#000000;stroke-width:0.34999999;stroke-miterlimit:4;stroke-dasharray:none"
         d="m 149.03764,-18.887011 a 1.5,1.5 0 0 1 -1.5,1.5 1.5,1.5 0 0 1 -1.5,-1.5 1.5,1.5 0 0 1 1.5,-1.5 1.5,1.5 0 0 1 1.5,1.5 z"
         id="circle3503"
         inkscape:connector-curvature="0" />
      <path
         transform="scale(1,-1)"
         style="fill:none;stroke:#000000;stroke-width:0.34999999;stroke-miterlimit:4;stroke-dasharray:none"
         d="m 72.037651,-187.88702 a 1.5,1.5 0 0 1 -1.5,1.5 1.5,1.5 0 0 1 -1.5,-1.5 1.5,1.5 0 0 1 1.5,-1.5 1.5,1.5 0 0 1 1.5,1.5 z"
         id="circle3515"
         inkscape:connector-curvature="0" />
      <path
         transform="scale(1,-1)"
         style="fill:none;stroke:#000000;stroke-width:0.34999999;stroke-miterlimit:4;stroke-dasharray:none"
         d="m 72.037651,-18.887011 a 1.5,1.5 0 0 1 -1.5,1.5 1.5,1.5 0 0 1 -1.5,-1.5 1.5,1.5 0 0 1 1.5,-1.5 1.5,1.5 0 0 1 1.5,1.5 z"
         id="circle3527"
         inkscape:connector-curvature="0" />
      <g
         style="fill:none;stroke:#000000"
         transform="matrix(1,0,0,-1,79.037648,178.88701)"
         id="Box020">
        <path
           inkscape:connector-curvature="0"
           style="fill:none;fill-rule:evenodd;stroke:#000000;stroke-width:0.34999999;stroke-miterlimit:4;stroke-dasharray:none"
           d="M 0,92 0,0 0,0 0,92 0,92 Z"
           id="Box020_f0000" />
        <path
           inkscape:connector-curvature="0"
           style="fill:none;fill-rule:evenodd;stroke:#000000;stroke-width:0.34999999;stroke-miterlimit:4;stroke-dasharray:none"
           d="m 60,0 0,0 0,92 0,0 0,-92 z"
           id="Box020_f0001" />
        <path
           inkscape:connector-curvature="0"
           style="fill:none;fill-rule:evenodd;stroke:#000000;stroke-width:0.34999999;stroke-miterlimit:4;stroke-dasharray:none"
           d="M 0,0 0,0 60,0 60,0 0,0 Z"
           id="Box020_f0002" />
        <path
           inkscape:connector-curvature="0"
           style="fill:none;fill-rule:evenodd;stroke:#000000;stroke-width:0.34999999;stroke-miterlimit:4;stroke-dasharray:none"
           d="m 60,92 -60,0 0,0 60,0 0,0 z"
           id="Box020_f0003" />
        <path
           inkscape:connector-curvature="0"
           style="fill:none;fill-rule:evenodd;stroke:#000000;stroke-width:0.34999999;stroke-miterlimit:4;stroke-dasharray:none"
           d="M 60,0 0,0 0,92 60,92 60,0 Z"
           id="Box020_f0004" />
        <path
           inkscape:connector-curvature="0"
           style="fill:none;fill-rule:evenodd;stroke:#000000;stroke-width:0.34999999;stroke-miterlimit:4;stroke-dasharray:none"
           d="M 0,92 0,0 60,0 60,92 0,92 Z"
           id="Box020_f0005" />
        <title
           id="title3546">AussparungLasercutBox001</title>
      </g>
      <g
         style="fill:none;stroke:#000000"
         transform="matrix(1,0,0,-1,79.037648,178.88701)"
         id="Box019">
        <path
           inkscape:connector-curvature="0"
           style="fill:none;fill-rule:evenodd;stroke:#000000;stroke-width:0.34999999;stroke-miterlimit:4;stroke-dasharray:none"
           d="m -6,162 0,-63 0,0 0,63 0,0 z"
           id="Box019_f0000" />
        <path
           inkscape:connector-curvature="0"
           style="fill:none;fill-rule:evenodd;stroke:#000000;stroke-width:0.34999999;stroke-miterlimit:4;stroke-dasharray:none"
           d="m 66,99 0,0 0,63 0,0 0,-63 z"
           id="Box019_f0001" />
        <path
           inkscape:connector-curvature="0"
           style="fill:none;fill-rule:evenodd;stroke:#000000;stroke-width:0.34999999;stroke-miterlimit:4;stroke-dasharray:none"
           d="m -6,99 0,0 72,0 0,0 -72,0 z"
           id="Box019_f0002" />
        <path
           inkscape:connector-curvature="0"
           style="fill:none;fill-rule:evenodd;stroke:#000000;stroke-width:0.34999999;stroke-miterlimit:4;stroke-dasharray:none"
           d="m 66,162 -72,0 0,0 72,0 0,0 z"
           id="Box019_f0003" />
        <path
           inkscape:connector-curvature="0"
           style="fill:none;fill-rule:evenodd;stroke:#000000;stroke-width:0.34999999;stroke-miterlimit:4;stroke-dasharray:none"
           d="m 66,99 -72,0 0,63 72,0 0,-63 z"
           id="Box019_f0004" />
        <path
           inkscape:connector-curvature="0"
           style="fill:none;fill-rule:evenodd;stroke:#000000;stroke-width:0.34999999;stroke-miterlimit:4;stroke-dasharray:none"
           d="m -6,162 0,-63 72,0 0,63 -72,0 z"
           id="Box019_f0005" />
        <title
           id="title3555">AussparungLasercutBox</title>
      </g>
    </g>
    <g
       id="g3574">
      <path
         inkscape:connector-curvature="0"
         id="path3633"
         inkscape:label="part"
         style="fill:none;stroke:#000000"
         d="m 50.037646,239.6636 0,-9.31577 4,0 0,-8.83 -4,0 0,-9.40077 4,0 0,-8.83 -4,0 0,-9.40077 4,0 0,-8.83 -4,0 0,-9.40077 4,0 0,-8.83 -4,0 0,-9.40077 4,0 0,-8.83 -4,0 0,-9.40077 4,0 0,-8.83 -4,0 0,-9.40076 4,0 0,-8.83 -4,0 0,-9.40077 4,0 0,-8.83 -4,0 0,-9.40077 4,0 0,-8.83 -4,0 0,-9.40077 4,0 0,-8.83 -4,0 0,-9.40077 4,0 0,-8.83 -4,0 0,-9.40077 4,0 0,-8.83 -4,0 0,-9.31577" />
      <path
         id="path3635"
         inkscape:label="part"
         style="fill:none;stroke:#000000"
         d="m 50.037646,11.6636 9.227857,0 0,4 8.83,0 0,-4 81.884287,0 0,4 8.83,0 0,-4 9.22786,0"
         inkscape:connector-curvature="0"
         sodipodi:nodetypes="cccccccccc" />
      <path
         inkscape:connector-curvature="0"
         id="path3637"
         inkscape:label="part"
         style="fill:none;stroke:#000000"
         d="m 168.03765,11.6636 0,9.31577 -4,0 0,8.83 4,0 0,9.40077 -4,0 0,8.83 4,0 0,9.40077 -4,0 0,8.83 4,0 0,9.40077 -4,0 0,8.83 4,0 0,9.40077 -4,0 0,8.83 4,0 0,9.40077 -4,0 0,8.83 4,0 0,9.40076 -4,0 0,8.83 4,0 0,9.40077 -4,0 0,8.83 4,0 0,9.40077 -4,0 0,8.83 4,0 0,9.40077 -4,0 0,8.83 4,0 0,9.40077 -4,0 0,8.83 4,0 0,9.40077 -4,0 0,8.83 4,0 0,9.31577" />
      <path
         inkscape:connector-curvature="0"
         id="path3639"
         inkscape:label="part"
         style="fill:none;stroke:#000000"
         d="m 168.03765,239.6636 -9.22786,0 0,-4 -8.83,0 0,4 -9.31285,0 0,-4 -8.83,0 0,4 -9.31286,0 0,-4 -8.83,0 0,4 -9.31286,0 0,-4 -8.830003,0 0,4 -9.312857,0 0,-4 -8.83,0 0,4 -9.312857,0 0,-4 -8.83,0 0,4 -9.227857,0" />
    </g>
  </g>
  <g
     id="g3787"
     transform="matrix(0,-1,1,0,11.037646,278.6636)">
    <path
       d="m 39,4.5 9.145769,0 0,-4 9.17,0 0,4 9.060769,0 0,-4 9.17,0 0,4 9.06077,0 0,-4 9.17,0 0,4 9.060772,0 0,-4 9.17,0 0,4 9.06077,0 0,-4 9.17,0 0,4 9.06077,0 0,-4 9.17,0 0,4 9.06076,0 0,-4 9.17,0 0,4 9.06077,0 0,-4 9.17,0 0,4 9.06077,0 0,-4 9.17,0 0,4 9.06077,0 0,-4 9.17,0 0,4 9.06077,0 0,-4 9.17,0 0,4 9.06077,0 0,-4 9.17,0 0,4 9.14577,0"
       style="fill:none;stroke:#000000"
       inkscape:label="part"
       id="path3657"
       inkscape:connector-curvature="0" />
    <path
       d="m 267,4.5 0,10.585 -4,0 0,8.83 4,0 0,10.585"
       style="fill:none;stroke:#000000"
       inkscape:label="part"
       id="path3659"
       inkscape:connector-curvature="0" />
    <path
       d="m 267,34.5 -9.14577,0 0,4 -9.17,0 0,-4 -9.06077,0 0,4 -9.17,0 0,-4 -9.06077,0 0,4 -9.17,0 0,-4 -9.06077,0 0,4 -9.17,0 0,-4 -9.06077,0 0,4 -9.17,0 0,-4 -9.06077,0 0,4 -9.17,0 0,-4 -9.06076,0 0,4 -9.17,0 0,-4 -9.06077,0 0,4 -9.17,0 0,-4 -9.06077,0 0,4 -9.17,0 0,-4 -9.060772,0 0,4 -9.17,0 0,-4 -9.06077,0 0,4 -9.17,0 0,-4 -9.060769,0 0,4 -9.17,0 0,-4 L 39,34.5"
       style="fill:none;stroke:#000000"
       inkscape:label="part"
       id="path3661"
       inkscape:connector-curvature="0" />
    <path
       d="m 39,34.5 0,-10.585 4,0 0,-8.83 -4,0 L 39,4.5"
       style="fill:none;stroke:#000000"
       inkscape:label="part"
       id="path3663"
       inkscape:connector-curvature="0" />
  </g>
  <g
     id="g3634">
    <path
       d="m 206.90235,239.81547 0,-9.31577 4,0 0,-8.83 -4,0 0,-9.40077 4,0 0,-8.83 -4,0 0,-9.40077 4,0 0,-8.83 -4,0 0,-9.40077 4,0 0,-8.83 -4,0 0,-9.40077 4,0 0,-8.83 -4,0 0,-9.40077 4,0 0,-8.83 -4,0 0,-9.40076 4,0 0,-8.83 -4,0 0,-9.40077 4,0 0,-8.83 -4,0 0,-9.40077 4,0 0,-8.83 -4,0 0,-9.40077 4,0 0,-8.83 -4,0 0,-9.40077 4,0 0,-8.83 -4,0 0,-9.40077 4,0 0,-8.83 -4,0 0,-9.31577"
       style="fill:none;stroke:#000000"
       inkscape:label="part"
       id="path3649"
       inkscape:connector-curvature="0" />
    <path
       d="m 206.90235,11.81547 9.22786,0 0,4 8.83,0 0,-4 9.31285,0 0,4 8.83,0 0,-4 9.31286,0 0,4 8.83,0 0,-4 9.31286,0 0,4 8.83,0 0,-4 9.31286,0 0,4 8.83,0 0,-4 9.31285,0 0,4 8.83,0 0,-4 9.22786,0"
       style="fill:none;stroke:#000000"
       inkscape:label="part"
       id="path3651"
       inkscape:connector-curvature="0" />
    <path
       d="m 324.90235,11.81547 0,9.31577 -4,0 0,8.83 4,0 0,9.40077 -4,0 0,8.83 4,0 0,9.40077 -4,0 0,8.83 4,0 0,9.40077 -4,0 0,8.83 4,0 0,9.40077 -4,0 0,8.83 4,0 0,9.40077 -4,0 0,8.83 4,0 0,9.40076 -4,0 0,8.83 4,0 0,9.40077 -4,0 0,8.83 4,0 0,9.40077 -4,0 0,8.83 4,0 0,9.40077 -4,0 0,8.83 4,0 0,9.40077 -4,0 0,8.83 4,0 0,9.40077 -4,0 0,8.83 4,0 0,9.31577"
       style="fill:none;stroke:#000000"
       inkscape:label="part"
       id="path3653"
       inkscape:connector-curvature="0" />
    <path
       d="m 324.90235,239.81547 -9.22786,0 0,-4 -8.83,0 0,4 -9.31285,0 0,-4 -8.83,0 0,4 -9.31286,0 0,-4 -8.83,0 0,4 -9.31286,0 0,-4 -8.83,0 0,4 -9.31286,0 0,-4 -8.83,0 0,4 -9.31285,0 0,-4 -8.83,0 0,4 -9.22786,0"
       style="fill:none;stroke:#000000"
       inkscape:label="part"
       id="path3655"
       inkscape:connector-curvature="0" />
  </g>
  <g
     id="g3628"
     transform="translate(0,20.319991)">
    <rect
       transform="matrix(0,-1,1,0,0,0)"
       y="206.45235"
       x="-183.41548"
       height="59.900002"
       width="115.20001"
       id="rect3740"
       style="color:#000000;display:inline;overflow:visible;visibility:visible;opacity:1;fill:none;fill-opacity:1;fill-rule:evenodd;stroke:#00ff00;stroke-width:0.10000002;stroke-linecap:butt;stroke-linejoin:miter;stroke-miterlimit:4;stroke-dasharray:none;stroke-dashoffset:0;stroke-opacity:1;marker:none;enable-background:accumulate" />
    <path
       inkscape:connector-curvature="0"
       id="path3742"
       d="m -170.21544,255.95235 a 3.1000001,3.0999999 0 0 1 -3.1,3.1 3.1000001,3.0999999 0 0 1 -3.10001,-3.1 3.1000001,3.0999999 0 0 1 3.10001,-3.1 3.1000001,3.0999999 0 0 1 3.1,3.1 z"
       style="color:#000000;display:inline;overflow:visible;visibility:visible;opacity:1;fill:none;fill-opacity:1;fill-rule:evenodd;stroke:#000000;stroke-width:0.10000002;stroke-linecap:butt;stroke-linejoin:miter;stroke-miterlimit:4;stroke-dasharray:none;stroke-dashoffset:0;stroke-opacity:1;marker:none;enable-background:accumulate"
       transform="matrix(0,-1,1,0,0,0)" />
    <path
       inkscape:connector-curvature="0"
       id="ellipse3744"
       d="m -75.515463,256.40234 a 3.1000001,3.0999999 0 0 1 -3.1,3.1 3.1000001,3.0999999 0 0 1 -3.1,-3.1 3.1000001,3.0999999 0 0 1 3.1,-3.1 3.1000001,3.0999999 0 0 1 3.1,3.1 z"
       style="color:#000000;display:inline;overflow:visible;visibility:visible;opacity:1;fill:none;fill-opacity:1;fill-rule:evenodd;stroke:#000000;stroke-width:0.09999999;stroke-linecap:butt;stroke-linejoin:miter;stroke-miterlimit:4;stroke-dasharray:none;stroke-dashoffset:0;stroke-opacity:1;marker:none;enable-background:accumulate"
       transform="matrix(0,-1,1,0,0,0)" />
    <path
       inkscape:connector-curvature="0"
       id="ellipse3746"
       d="m -105.71548,236.25235 a 3.1000001,3.0999999 0 0 1 -3.1,3.1 3.1000001,3.0999999 0 0 1 -3.1,-3.1 3.1000001,3.0999999 0 0 1 3.1,-3.1 3.1000001,3.0999999 0 0 1 3.1,3.1 z"
       style="color:#000000;display:inline;overflow:visible;visibility:visible;opacity:1;fill:none;fill-opacity:1;fill-rule:evenodd;stroke:#000000;stroke-width:0.09999999;stroke-linecap:butt;stroke-linejoin:miter;stroke-miterlimit:4;stroke-dasharray:none;stroke-dashoffset:0;stroke-opacity:1;marker:none;enable-background:accumulate"
       transform="matrix(0,-1,1,0,0,0)" />
  </g>
  <g
     id="g3497"
     transform="translate(-75.071091,0)">
    <g
       transform="matrix(0,-1,1,0,167.90235,546.37991)"
       id="g3799">
      <path
         inkscape:connector-curvature="0"
         id="path3641"
         inkscape:label="part"
         style="fill:none;stroke:#000000"
         d="m 271.5,43 10.415,0 0,-4 9.17,0 0,4 10.415,0" />
      <path
         inkscape:connector-curvature="0"
         id="path3643"
         inkscape:label="part"
         style="fill:none;stroke:#000000"
         d="m 301.5,43 0,5.057857 4,0 0,9.17 -4,0 0,8.972857 4,0 0,9.17 -4,0 0,8.972857 4,0 0,9.17 -4,0 0,8.972859 4,0 0,9.17 -4,0 0,8.97286 4,0 0,9.17 -4,0 0,8.97285 4,0 0,9.17 -4,0 0,5.05786" />
      <path
         inkscape:connector-curvature="0"
         id="path3645"
         inkscape:label="part"
         style="fill:none;stroke:#000000"
         d="m 301.5,153 -10.415,0 0,4 -9.17,0 0,-4 -10.415,0" />
      <path
         id="path3647"
         inkscape:label="part"
         style="fill:none;stroke:#000000"
         d="m 271.5,153 0,-5.05786 -4,0 0,-9.17 4,0 0,-81.544283 -4,0 0,-9.17 4,0 L 271.5,43"
         inkscape:connector-curvature="0"
         sodipodi:nodetypes="cccccccccc" />
    </g>
    <g
       transform="matrix(1,0,0,1.2490572,156.8647,256.66125)"
       id="g3608">
      <rect
         style="color:#000000;display:inline;overflow:visible;visibility:visible;opacity:1;fill:none;fill-opacity:1;fill-rule:evenodd;stroke:#000000;stroke-width:0.08947647;stroke-linecap:butt;stroke-linejoin:miter;stroke-miterlimit:4;stroke-dasharray:none;stroke-dashoffset:0;stroke-opacity:1;marker:none;enable-background:accumulate"
         id="rect3503"
         width="6.9000001"
         height="1.9"
         x="144.08765"
         y="8.9034042" />
      <rect
         y="8.9034042"
         x="67.087654"
         height="1.9"
         width="6.9000001"
         id="rect3550"
         style="color:#000000;display:inline;overflow:visible;visibility:visible;opacity:1;fill:none;fill-opacity:1;fill-rule:evenodd;stroke:#000000;stroke-width:0.08947647;stroke-linecap:butt;stroke-linejoin:miter;stroke-miterlimit:4;stroke-dasharray:none;stroke-dashoffset:0;stroke-opacity:1;marker:none;enable-background:accumulate" />
    </g>
  </g>
  <path
     style="color:#000000;display:inline;overflow:visible;visibility:visible;opacity:1;fill:none;fill-opacity:1;fill-rule:evenodd;stroke:#000000;stroke-width:0.10000001;stroke-linecap:butt;stroke-linejoin:miter;stroke-miterlimit:4;stroke-dasharray:none;stroke-dashoffset:0;stroke-opacity:1;marker:none;enable-background:accumulate"
     d="m 227.34925,223.43487 a 4.9499998,4.9499998 0 0 1 -4.95,4.95 4.9499998,4.9499998 0 0 1 -4.95,-4.95 4.9499998,4.9499998 0 0 1 4.95,-4.95 4.9499998,4.9499998 0 0 1 4.95,4.95 z"
     id="path3402"
     inkscape:connector-curvature="0" />
  <rect
     style="color:#000000;display:inline;overflow:visible;visibility:visible;opacity:1;fill:none;fill-opacity:1;fill-rule:evenodd;stroke:#000000;stroke-width:0.1;stroke-linecap:butt;stroke-linejoin:miter;stroke-miterlimit:4;stroke-dasharray:none;stroke-dashoffset:0;stroke-opacity:1;marker:none;enable-background:accumulate"
     id="rect3415"
     width="14.900001"
     height="8.8999996"
     x="259.38892"
     y="218.98486" />
  <g
     id="g3431">
    <path
       inkscape:connector-curvature="0"
       id="path3417"
       d="m 33.487646,54.414486 a 2.95,5.9500003 0 0 1 -2.95,5.95 2.95,5.9500003 0 0 1 -2.95,-5.95 2.95,5.9500003 0 0 1 2.95,-5.95 2.95,5.9500003 0 0 1 2.95,5.95 z"
       style="color:#000000;display:inline;overflow:visible;visibility:visible;opacity:1;fill:none;fill-opacity:1;fill-rule:evenodd;stroke:#000000;stroke-width:0.1;stroke-linecap:butt;stroke-linejoin:miter;stroke-miterlimit:4;stroke-dasharray:none;stroke-dashoffset:0;stroke-opacity:1;marker:none;enable-background:accumulate" />
    <path
       inkscape:connector-curvature="0"
       id="ellipse3421"
       d="m 33.487646,94.41449 a 2.95,5.9500003 0 0 1 -2.95,5.95 2.95,5.9500003 0 0 1 -2.95,-5.95 2.95,5.9500003 0 0 1 2.95,-5.950001 2.95,5.9500003 0 0 1 2.95,5.950001 z"
       style="color:#000000;display:inline;overflow:visible;visibility:visible;opacity:1;fill:none;fill-opacity:1;fill-rule:evenodd;stroke:#000000;stroke-width:0.1;stroke-linecap:butt;stroke-linejoin:miter;stroke-miterlimit:4;stroke-dasharray:none;stroke-dashoffset:0;stroke-opacity:1;marker:none;enable-background:accumulate" />
    <path
       inkscape:connector-curvature="0"
       id="ellipse3423"
       d="m 33.487646,134.41449 a 2.95,5.9500003 0 0 1 -2.95,5.95 2.95,5.9500003 0 0 1 -2.95,-5.95 2.95,5.9500003 0 0 1 2.95,-5.95 2.95,5.9500003 0 0 1 2.95,5.95 z"
       style="color:#000000;display:inline;overflow:visible;visibility:visible;opacity:1;fill:none;fill-opacity:1;fill-rule:evenodd;stroke:#000000;stroke-width:0.1;stroke-linecap:butt;stroke-linejoin:miter;stroke-miterlimit:4;stroke-dasharray:none;stroke-dashoffset:0;stroke-opacity:1;marker:none;enable-background:accumulate" />
    <path
       inkscape:connector-curvature="0"
       id="ellipse3425"
       d="m 33.487646,174.41449 a 2.95,5.9500003 0 0 1 -2.95,5.95 2.95,5.9500003 0 0 1 -2.95,-5.95 2.95,5.9500003 0 0 1 2.95,-5.95 2.95,5.9500003 0 0 1 2.95,5.95 z"
       style="color:#000000;display:inline;overflow:visible;visibility:visible;opacity:1;fill:none;fill-opacity:1;fill-rule:evenodd;stroke:#000000;stroke-width:0.1;stroke-linecap:butt;stroke-linejoin:miter;stroke-miterlimit:4;stroke-dasharray:none;stroke-dashoffset:0;stroke-opacity:1;marker:none;enable-background:accumulate" />
  </g>
  <g
     id="g3437"
     transform="translate(157,0)">
    <path
       style="color:#000000;display:inline;overflow:visible;visibility:visible;opacity:1;fill:none;fill-opacity:1;fill-rule:evenodd;stroke:#000000;stroke-width:0.1;stroke-linecap:butt;stroke-linejoin:miter;stroke-miterlimit:4;stroke-dasharray:none;stroke-dashoffset:0;stroke-opacity:1;marker:none;enable-background:accumulate"
       d="m 33.487646,54.414486 a 2.95,5.9500003 0 0 1 -2.95,5.95 2.95,5.9500003 0 0 1 -2.95,-5.95 2.95,5.9500003 0 0 1 2.95,-5.95 2.95,5.9500003 0 0 1 2.95,5.95 z"
       id="path3439"
       inkscape:connector-curvature="0" />
    <path
       style="color:#000000;display:inline;overflow:visible;visibility:visible;opacity:1;fill:none;fill-opacity:1;fill-rule:evenodd;stroke:#000000;stroke-width:0.1;stroke-linecap:butt;stroke-linejoin:miter;stroke-miterlimit:4;stroke-dasharray:none;stroke-dashoffset:0;stroke-opacity:1;marker:none;enable-background:accumulate"
       d="m 33.487646,94.41449 a 2.95,5.9500003 0 0 1 -2.95,5.95 2.95,5.9500003 0 0 1 -2.95,-5.95 2.95,5.9500003 0 0 1 2.95,-5.950001 2.95,5.9500003 0 0 1 2.95,5.950001 z"
       id="path3441"
       inkscape:connector-curvature="0" />
    <path
       style="color:#000000;display:inline;overflow:visible;visibility:visible;opacity:1;fill:none;fill-opacity:1;fill-rule:evenodd;stroke:#000000;stroke-width:0.1;stroke-linecap:butt;stroke-linejoin:miter;stroke-miterlimit:4;stroke-dasharray:none;stroke-dashoffset:0;stroke-opacity:1;marker:none;enable-background:accumulate"
       d="m 33.487646,134.41449 a 2.95,5.9500003 0 0 1 -2.95,5.95 2.95,5.9500003 0 0 1 -2.95,-5.95 2.95,5.9500003 0 0 1 2.95,-5.95 2.95,5.9500003 0 0 1 2.95,5.95 z"
       id="path3443"
       inkscape:connector-curvature="0" />
    <path
       style="color:#000000;display:inline;overflow:visible;visibility:visible;opacity:1;fill:none;fill-opacity:1;fill-rule:evenodd;stroke:#000000;stroke-width:0.1;stroke-linecap:butt;stroke-linejoin:miter;stroke-miterlimit:4;stroke-dasharray:none;stroke-dashoffset:0;stroke-opacity:1;marker:none;enable-background:accumulate"
       d="m 33.487646,174.41449 a 2.95,5.9500003 0 0 1 -2.95,5.95 2.95,5.9500003 0 0 1 -2.95,-5.95 2.95,5.9500003 0 0 1 2.95,-5.95 2.95,5.9500003 0 0 1 2.95,5.95 z"
       id="path3445"
       inkscape:connector-curvature="0" />
  </g>
  <text
     xml:space="preserve"
     style="font-style:normal;font-variant:normal;font-weight:normal;font-stretch:normal;font-size:5.64444447px;line-height:100%;font-family:Ubuntu;-inkscape-font-specification:'Ubuntu, Normal';text-align:start;letter-spacing:0px;word-spacing:0px;writing-mode:lr-tb;text-anchor:start;fill:#000000;fill-opacity:1;stroke:none;stroke-width:1px;stroke-linecap:butt;stroke-linejoin:miter;stroke-opacity:1;"
     x="70.134048"
     y="205.71866"
     id="text3466"
     sodipodi:linespacing="100%"><tspan
       sodipodi:role="line"
       id="tspan3468"
       x="70.134048"
       y="205.71866" /></text>
  <g
     style="font-style:normal;font-variant:normal;font-weight:normal;font-stretch:normal;font-size:4.28371525px;line-height:100%;font-family:Ubuntu;-inkscape-font-specification:'Ubuntu, Normal';text-align:start;letter-spacing:0.21418576px;word-spacing:0px;writing-mode:lr-tb;text-anchor:start;fill:#ff0000;fill-opacity:1;stroke:none;stroke-width:1px;stroke-linecap:butt;stroke-linejoin:miter;stroke-opacity:1"
     id="text3470">
    <path
       d="m 87.270015,220.36029 q 0.10281,0 0.231321,0.0171 0.137079,0.009 0.26559,0.0343 0.128512,0.0171 0.231321,0.0428 0.111377,0.0171 0.162781,0.0343 l -0.137079,0.69396 q -0.09424,-0.0343 -0.316995,-0.0771 -0.214185,-0.0514 -0.556883,-0.0514 -0.222753,0 -0.445506,0.0514 -0.214186,0.0428 -0.282725,0.06 l 0,3.74397 -0.796771,0 0,-4.26658 q 0.282725,-0.10281 0.702529,-0.18848 0.419804,-0.0942 0.942417,-0.0942 z"
       style="font-size:8.5674305px;fill:#ff0000"
       id="path3475" />
    <path
       d="m 90.403285,224.32701 q 0.762502,0 1.088064,-0.29986 0.33413,-0.29986 0.33413,-0.80534 0,-0.32556 -0.137079,-0.54832 -0.137079,-0.22275 -0.359832,-0.35126 -0.222753,-0.13708 -0.522613,-0.18849 -0.291293,-0.06 -0.599721,-0.06 l -0.205618,0 0,-0.65112 0.282725,0 q 0.214186,0 0.436939,-0.0428 0.231321,-0.0428 0.419804,-0.15421 0.188484,-0.11138 0.308428,-0.29986 0.119944,-0.19705 0.119944,-0.48835 0,-0.23989 -0.08567,-0.41123 -0.08567,-0.17135 -0.231321,-0.28273 -0.137079,-0.11138 -0.325562,-0.15421 -0.179916,-0.0514 -0.385535,-0.0514 -0.411236,0 -0.702529,0.11995 -0.282725,0.11994 -0.479776,0.24845 l -0.308428,-0.60829 q 0.102809,-0.0685 0.257023,-0.14564 0.162781,-0.0857 0.359832,-0.15422 0.197051,-0.0685 0.419804,-0.11137 0.231321,-0.0514 0.479776,-0.0514 0.471209,0 0.813906,0.11995 0.342698,0.11137 0.565451,0.32556 0.222753,0.20562 0.33413,0.49691 0.111376,0.28273 0.111376,0.61686 0,0.46264 -0.26559,0.79677 -0.265591,0.32556 -0.642557,0.49691 0.23132,0.0685 0.445506,0.19705 0.214186,0.12851 0.368399,0.32556 0.162782,0.19705 0.257023,0.45407 0.10281,0.25703 0.10281,0.57402 0,0.38554 -0.137079,0.71967 -0.128512,0.32556 -0.411237,0.56545 -0.274158,0.23989 -0.693962,0.37696 -0.419804,0.13708 -0.993822,0.13708 -0.222753,0 -0.462641,-0.0343 -0.231321,-0.0343 -0.436939,-0.0857 -0.205618,-0.0514 -0.359832,-0.10281 -0.154214,-0.0514 -0.222753,-0.0857 l 0.154213,-0.69397 q 0.145647,0.0685 0.479777,0.17992 0.342697,0.11138 0.83104,0.11138 z"
       style="font-size:8.5674305px;fill:#ff0000"
       id="path3477" />
    <path
       d="m 100.01527,224.18993 0,0.71966 -3.572616,0 0,-5.93723 0.831041,0 0,5.21757 2.741575,0 z"
       style="font-size:8.5674305px;fill:#ff0000"
       id="path3479" />
    <path
       d="m 102.56435,224.33557 q 0.28273,0 0.49691,-0.009 0.22276,-0.0171 0.3684,-0.0514 l 0,-1.32795 q -0.0857,-0.0428 -0.28272,-0.0685 -0.18849,-0.0343 -0.46264,-0.0343 -0.17992,0 -0.38554,0.0257 -0.19705,0.0257 -0.3684,0.11138 -0.16278,0.0771 -0.27416,0.22275 -0.11137,0.13708 -0.11137,0.3684 0,0.42837 0.27415,0.59972 0.27416,0.16278 0.74537,0.16278 z m -0.0685,-3.99242 q 0.47978,0 0.80534,0.12851 0.33413,0.11995 0.53118,0.35127 0.20562,0.22275 0.29129,0.53975 0.0857,0.30842 0.0857,0.68539 l 0,2.78441 q -0.10281,0.0171 -0.29129,0.0514 -0.17992,0.0257 -0.41124,0.0514 -0.23132,0.0257 -0.50548,0.0428 -0.26559,0.0257 -0.53118,0.0257 -0.37697,0 -0.69396,-0.0771 -0.317,-0.0771 -0.54832,-0.23989 -0.23132,-0.17135 -0.35983,-0.44551 -0.12851,-0.27416 -0.12851,-0.65969 0,-0.3684 0.14564,-0.63399 0.15422,-0.26559 0.41124,-0.42837 0.25702,-0.16278 0.59972,-0.23989 0.3427,-0.0771 0.71967,-0.0771 0.11994,0 0.24845,0.0171 0.12851,0.009 0.23989,0.0343 0.11994,0.0171 0.20562,0.0343 0.0857,0.0171 0.11994,0.0257 l 0,-0.22275 q 0,-0.19705 -0.0428,-0.38554 -0.0428,-0.19705 -0.15421,-0.34269 -0.11138,-0.15422 -0.30843,-0.23989 -0.18848,-0.0942 -0.49691,-0.0942 -0.3941,0 -0.69396,0.06 -0.29129,0.0514 -0.43694,0.11137 l -0.0942,-0.65969 q 0.15421,-0.0685 0.51405,-0.12851 0.35983,-0.0685 0.77963,-0.0685 z"
       style="font-size:8.5674305px;fill:#ff0000"
       id="path3481" />
    <path
       d="m 106.77511,224.33557 q 0.48834,0 0.71966,-0.12851 0.23989,-0.12851 0.23989,-0.41123 0,-0.2913 -0.23132,-0.46265 -0.23132,-0.17134 -0.7625,-0.38553 -0.25702,-0.10281 -0.49691,-0.20562 -0.23132,-0.11137 -0.40267,-0.25702 -0.17135,-0.14565 -0.27416,-0.35127 -0.10281,-0.20561 -0.10281,-0.50547 0,-0.59116 0.43694,-0.93385 0.43694,-0.35127 1.19087,-0.35127 0.18849,0 0.37697,0.0257 0.18848,0.0171 0.35126,0.0514 0.16279,0.0257 0.28273,0.06 0.12851,0.0343 0.19705,0.06 l -0.14565,0.6854 q -0.12851,-0.0685 -0.40266,-0.13708 -0.27416,-0.0771 -0.6597,-0.0771 -0.33413,0 -0.58258,0.13708 -0.24846,0.12851 -0.24846,0.41124 0,0.14564 0.0514,0.25702 0.06,0.11138 0.17135,0.20562 0.11994,0.0857 0.29129,0.16278 0.17135,0.0771 0.41124,0.16278 0.31699,0.11994 0.56545,0.23989 0.24845,0.11137 0.4198,0.26559 0.17992,0.15421 0.27416,0.37697 0.0942,0.21418 0.0942,0.53118 0,0.61685 -0.46264,0.93385 -0.45408,0.31699 -1.30225,0.31699 -0.59115,0 -0.92528,-0.10281 -0.33413,-0.0942 -0.45408,-0.14564 l 0.14565,-0.6854 q 0.13708,0.0514 0.43694,0.15421 0.29986,0.10281 0.79677,0.10281 z"
       style="font-size:8.5674305px;fill:#ff0000"
       id="path3483" />
    <path
       d="m 109.51937,222.69063 q 0,-0.59116 0.17134,-1.02809 0.17135,-0.44551 0.45408,-0.7368 0.28272,-0.2913 0.65112,-0.43694 0.3684,-0.14565 0.75394,-0.14565 0.89958,0 1.37935,0.56545 0.47978,0.55688 0.47978,1.70492 0,0.0514 0,0.13708 0,0.0771 -0.009,0.14565 l -3.05,0 q 0.0514,0.69396 0.40267,1.05379 0.35126,0.35983 1.09663,0.35983 0.4198,0 0.70253,-0.0685 0.29129,-0.0771 0.43693,-0.14564 l 0.11138,0.66826 q -0.14565,0.0771 -0.51404,0.16278 -0.35984,0.0857 -0.82248,0.0857 -0.58258,0 -1.01095,-0.17135 -0.41981,-0.17991 -0.69397,-0.48834 -0.27415,-0.30843 -0.41123,-0.72823 -0.12851,-0.42837 -0.12851,-0.93385 z m 3.05857,-0.43694 q 0.009,-0.53975 -0.27416,-0.88245 -0.27416,-0.35126 -0.7625,-0.35126 -0.27416,0 -0.48834,0.11137 -0.20562,0.10281 -0.35127,0.27416 -0.14565,0.17135 -0.23132,0.3941 -0.0771,0.22276 -0.10281,0.45408 l 2.2104,0 z"
       style="font-size:8.5674305px;fill:#ff0000"
       id="path3485" />
    <path
       d="m 116.41267,220.36029 q 0.10281,0 0.23132,0.0171 0.13708,0.009 0.26559,0.0343 0.12851,0.0171 0.23132,0.0428 0.11137,0.0171 0.16278,0.0343 l -0.13708,0.69396 q -0.0942,-0.0343 -0.31699,-0.0771 -0.21419,-0.0514 -0.55689,-0.0514 -0.22275,0 -0.4455,0.0514 -0.21419,0.0428 -0.28273,0.06 l 0,3.74397 -0.79677,0 0,-4.26658 q 0.28272,-0.10281 0.70253,-0.18848 0.4198,-0.0942 0.94242,-0.0942 z"
       style="font-size:8.5674305px;fill:#ff0000"
       id="path3487" />
    <path
       d="m 120.89959,225.0381 q -0.62542,0 -1.13947,-0.20562 -0.51405,-0.20561 -0.88244,-0.59972 -0.3684,-0.3941 -0.57402,-0.96811 -0.19705,-0.58259 -0.19705,-1.32796 0,-0.74536 0.22275,-1.31938 0.23132,-0.58259 0.61685,-0.97669 0.38554,-0.3941 0.89958,-0.59972 0.51405,-0.20562 1.09664,-0.20562 0.3684,0 0.65969,0.0514 0.29986,0.0514 0.51404,0.11994 0.22276,0.0685 0.35984,0.13708 0.13707,0.0685 0.18848,0.10281 l -0.23989,0.68539 q -0.0771,-0.0514 -0.22275,-0.11137 -0.14565,-0.06 -0.33413,-0.11995 -0.17992,-0.06 -0.40267,-0.0942 -0.21419,-0.0428 -0.43694,-0.0428 -0.47121,0 -0.84818,0.16278 -0.37696,0.16278 -0.64255,0.4712 -0.26559,0.30843 -0.41124,0.75394 -0.13708,0.43694 -0.13708,0.98525 0,0.53118 0.11995,0.96812 0.12851,0.43694 0.37696,0.75394 0.24846,0.30842 0.61686,0.47977 0.37696,0.17135 0.87388,0.17135 0.57401,0 0.95098,-0.11994 0.37697,-0.11995 0.56545,-0.21419 l 0.21419,0.6854 q -0.06,0.0428 -0.21419,0.11137 -0.15421,0.06 -0.38553,0.11995 -0.23132,0.06 -0.53975,0.10281 -0.30843,0.0428 -0.66826,0.0428 z"
       style="font-size:8.5674305px;fill:#ff0000"
       id="path3489" />
    <path
       d="m 124.55909,220.45453 1.68778,0 0,0.66826 -1.68778,0 0,2.05618 q 0,0.33413 0.0514,0.55688 0.0514,0.21419 0.15422,0.3427 0.1028,0.11994 0.25702,0.17135 0.15421,0.0514 0.35983,0.0514 0.35983,0 0.57402,-0.0771 0.22275,-0.0857 0.30843,-0.11995 l 0.15421,0.6597 q -0.11994,0.06 -0.4198,0.14564 -0.29986,0.0942 -0.6854,0.0942 -0.45407,0 -0.75393,-0.11137 -0.2913,-0.11995 -0.47121,-0.35127 -0.17992,-0.23132 -0.25702,-0.56545 -0.0685,-0.3427 -0.0685,-0.7882 l 0,-3.97529 0.79677,-0.13708 0,1.37936 z"
       style="font-size:8.5674305px;fill:#ff0000"
       id="path3491" />
    <path
       d="m 129.1199,220.36029 q 0.10281,0 0.23132,0.0171 0.13708,0.009 0.26559,0.0343 0.12852,0.0171 0.23132,0.0428 0.11138,0.0171 0.16279,0.0343 l -0.13708,0.69396 q -0.0942,-0.0343 -0.317,-0.0771 -0.21418,-0.0514 -0.55688,-0.0514 -0.22275,0 -0.44551,0.0514 -0.21418,0.0428 -0.28272,0.06 l 0,3.74397 -0.79677,0 0,-4.26658 q 0.28272,-0.10281 0.70253,-0.18848 0.4198,-0.0942 0.94241,-0.0942 z"
       style="font-size:8.5674305px;fill:#ff0000"
       id="path3493" />
    <path
       d="m 132.33885,224.99527 q -0.7368,-0.0171 -1.04523,-0.317 -0.30842,-0.29986 -0.30842,-0.93385 l 0,-5.34608 0.79677,-0.13707 0,5.35464 q 0,0.19705 0.0343,0.32556 0.0343,0.12851 0.11137,0.20562 0.0771,0.0771 0.20562,0.11994 0.12851,0.0343 0.317,0.06 l -0.11138,0.66826 z"
       style="font-size:8.5674305px;fill:#ff0000"
       id="path3495" />
  </g>
</svg>
