<?xml version="1.0" encoding="UTF-8" standalone="no"?>
<svg
   xmlns:dc="http://purl.org/dc/elements/1.1/"
   xmlns:cc="http://creativecommons.org/ns#"
   xmlns:rdf="http://www.w3.org/1999/02/22-rdf-syntax-ns#"
   xmlns:svg="http://www.w3.org/2000/svg"
   xmlns="http://www.w3.org/2000/svg"
   xmlns:sodipodi="http://sodipodi.sourceforge.net/DTD/sodipodi-0.dtd"
   xmlns:inkscape="http://www.inkscape.org/namespaces/inkscape"
   width="86.6678279814mm"
   height="178.683583004mm"
   viewBox="0 0 86.6678279814 178.683583004"
   version="1.1"
   id="svg3486"
   inkscape:version="0.91 r13725"
   sodipodi:docname="aussparung.svg">
  <sodipodi:namedview
     pagecolor="#ffffff"
     bordercolor="#666666"
     borderopacity="1"
     objecttolerance="10"
     gridtolerance="10"
     guidetolerance="10"
     inkscape:pageopacity="0"
     inkscape:pageshadow="2"
     inkscape:window-width="2560"
     inkscape:window-height="1368"
     id="namedview3557"
     showgrid="false"
     inkscape:zoom="1.0542984"
     inkscape:cx="381.12005"
     inkscape:cy="91.898893"
     inkscape:window-x="0"
     inkscape:window-y="35"
     inkscape:window-maximized="1"
     inkscape:current-layer="svg3486"
     showguides="true"
     inkscape:guide-bbox="true" />
  <metadata
     id="metadata3561">
    <rdf:RDF>
      <cc:Work
         rdf:about="">
        <dc:format>image/svg+xml</dc:format>
        <dc:type
           rdf:resource="http://purl.org/dc/dcmitype/StillImage" />
      </cc:Work>
    </rdf:RDF>
  </metadata>
  <defs
     id="defs3559" />
  <g
     id="g3615"
     inkscape:groupmode="layer"
     inkscape:label="newlayer" />
  <g
     id="g3793">
    <path
       d="M 39.0,161.5 L 48.1457692271,161.5 L 48.1457692271,157.5 L 57.3157692345,157.5 L 57.3157692345,161.5 L 66.3765384579,161.5 L 66.3765384579,157.5 L 75.5465384652,157.5 L 75.5465384652,161.5 L 84.6073076886,161.5 L 84.6073076886,157.5 L 93.777307696,157.5 L 93.777307696,161.5 L 102.838076919,161.5 L 102.838076919,157.5 L 112.008076927,157.5 L 112.008076927,161.5 L 121.06884615,161.5 L 121.06884615,157.5 L 130.238846158,157.5 L 130.238846158,161.5 L 139.299615381,161.5 L 139.299615381,157.5 L 148.469615388,157.5 L 148.469615388,161.5 L 157.530384612,161.5 L 157.530384612,157.5 L 166.700384619,157.5 L 166.700384619,161.5 L 175.761153842,161.5 L 175.761153842,157.5 L 184.93115385,157.5 L 184.93115385,161.5 L 193.991923073,161.5 L 193.991923073,157.5 L 203.161923081,157.5 L 203.161923081,161.5 L 212.222692304,161.5 L 212.222692304,157.5 L 221.392692311,157.5 L 221.392692311,161.5 L 230.453461535,161.5 L 230.453461535,157.5 L 239.623461542,157.5 L 239.623461542,161.5 L 248.684230766,161.5 L 248.684230766,157.5 L 257.854230773,157.5 L 257.854230773,161.5 L 267.0,161.5 "
       style="stroke:#000000;fill:none"
       inkscape:label="part"
       id="path3617" />
    <path
       d="M 267.0,161.5 L 267.0,172.085000004 L 263.0,172.085000004 L 263.0,180.914999996 L 267.0,180.914999996 L 267.0,191.5 "
       style="stroke:#000000;fill:none"
       inkscape:label="part"
       id="path3619" />
    <path
       d="M 267.0,191.5 L 257.854230773,191.5 L 257.854230773,195.5 L 248.684230766,195.5 L 248.684230766,191.5 L 239.623461542,191.5 L 239.623461542,195.5 L 230.453461535,195.5 L 230.453461535,191.5 L 221.392692311,191.5 L 221.392692311,195.5 L 212.222692304,195.5 L 212.222692304,191.5 L 203.161923081,191.5 L 203.161923081,195.5 L 193.991923073,195.5 L 193.991923073,191.5 L 184.93115385,191.5 L 184.93115385,195.5 L 175.761153842,195.5 L 175.761153842,191.5 L 166.700384619,191.5 L 166.700384619,195.5 L 157.530384612,195.5 L 157.530384612,191.5 L 148.469615388,191.5 L 148.469615388,195.5 L 139.299615381,195.5 L 139.299615381,191.5 L 130.238846158,191.5 L 130.238846158,195.5 L 121.06884615,195.5 L 121.06884615,191.5 L 112.008076927,191.5 L 112.008076927,195.5 L 102.838076919,195.5 L 102.838076919,191.5 L 93.777307696,191.5 L 93.777307696,195.5 L 84.6073076886,195.5 L 84.6073076886,191.5 L 75.5465384652,191.5 L 75.5465384652,195.5 L 66.3765384579,195.5 L 66.3765384579,191.5 L 57.3157692345,191.5 L 57.3157692345,195.5 L 48.1457692271,195.5 L 48.1457692271,191.5 L 39.0,191.5 "
       style="stroke:#000000;fill:none"
       inkscape:label="part"
       id="path3621" />
    <path
       d="M 39.0,191.5 L 39.0,180.914999996 L 43.0,180.914999996 L 43.0,172.085000004 L 39.0,172.085000004 L 39.0,161.5 "
       style="stroke:#000000;fill:none"
       inkscape:label="part"
       id="path3623" />
  </g>
  <g
     id="g3781">
    <path
       d="M 4.5,43.0 L 14.9149999963,43.0 L 14.9149999963,39.0 L 24.0850000037,39.0 L 24.0850000037,43.0 L 34.5,43.0 "
       style="stroke:#000000;fill:none"
       inkscape:label="part"
       id="path3625" />
    <path
       d="M 34.5,43.0 L 34.5,48.0578571392 L 38.5,48.0578571392 L 38.5,57.2278571465 L 34.5,57.2278571465 L 34.5,66.200714282 L 38.5,66.200714282 L 38.5,75.3707142894 L 34.5,75.3707142894 L 34.5,84.3435714249 L 38.5,84.3435714249 L 38.5,93.5135714323 L 34.5,93.5135714323 L 34.5,102.486428568 L 38.5,102.486428568 L 38.5,111.656428575 L 34.5,111.656428575 L 34.5,120.629285711 L 38.5,120.629285711 L 38.5,129.799285718 L 34.5,129.799285718 L 34.5,138.772142853 L 38.5,138.772142853 L 38.5,147.942142861 L 34.5,147.942142861 L 34.5,153.0 "
       style="stroke:#000000;fill:none"
       inkscape:label="part"
       id="path3627" />
    <path
       d="M 34.5,153.0 L 24.0850000037,153.0 L 24.0850000037,157.0 L 14.9149999963,157.0 L 14.9149999963,153.0 L 4.5,153.0 "
       style="stroke:#000000;fill:none"
       inkscape:label="part"
       id="path3629" />
    <path
       d="M 4.5,153.0 L 4.5,147.942142861 L 0.5,147.942142861 L 0.5,138.772142853 L 4.5,138.772142853 L 4.5,129.799285718 L 0.5,129.799285718 L 0.5,120.629285711 L 4.5,120.629285711 L 4.5,111.656428575 L 0.5,111.656428575 L 0.5,102.486428568 L 4.5,102.486428568 L 4.5,93.5135714323 L 0.5,93.5135714323 L 0.5,84.3435714249 L 4.5,84.3435714249 L 4.5,75.3707142894 L 0.5,75.3707142894 L 0.5,66.200714282 L 4.5,66.200714282 L 4.5,57.2278571465 L 0.5,57.2278571465 L 0.5,48.0578571392 L 4.5,48.0578571392 L 4.5,43.0 "
       style="stroke:#000000;fill:none"
       inkscape:label="part"
       id="path3631" />
  </g>
  <g
     id="g3754">
    <g
       transform="matrix(0,0.99999993,-1.0000001,0,264.61838,54.681859)"
       id="g3716">
      <circle
         transform="scale(1,-1)"
         cx="81.818146"
         cy="-173.8418"
         r="1.5"
         style="fill:none;stroke:#191919;stroke-width:0.34999999;stroke-miterlimit:4;stroke-dasharray:none"
         id="circle3491" />
      <circle
         transform="scale(1,-1)"
         cx="81.818146"
         cy="-4.8417902"
         r="1.5"
         style="fill:none;stroke:#191919;stroke-width:0.34999999;stroke-miterlimit:4;stroke-dasharray:none"
         id="circle3503" />
      <circle
         transform="scale(1,-1)"
         cx="4.8181429"
         cy="-173.8418"
         r="1.5"
         style="fill:none;stroke:#191919;stroke-width:0.34999999;stroke-miterlimit:4;stroke-dasharray:none"
         id="circle3515" />
      <circle
         transform="scale(1,-1)"
         cx="4.8181429"
         cy="-4.8417902"
         r="1.5"
         style="fill:none;stroke:#191919;stroke-width:0.34999999;stroke-miterlimit:4;stroke-dasharray:none"
         id="circle3527" />
      <g
         style="fill:none"
         transform="matrix(1,0,0,-1,13.318143,164.84179)"
         id="Box020">
        <path
           inkscape:connector-curvature="0"
           style="fill:none;fill-rule:evenodd;stroke:#191919;stroke-width:0.34999999;stroke-miterlimit:4;stroke-dasharray:none"
           d="M 0,92 0,0 0,0 0,92 0,92 Z"
           id="Box020_f0000" />
        <path
           inkscape:connector-curvature="0"
           style="fill:none;fill-rule:evenodd;stroke:#191919;stroke-width:0.34999999;stroke-miterlimit:4;stroke-dasharray:none"
           d="m 60,0 0,0 0,92 0,0 0,-92 z"
           id="Box020_f0001" />
        <path
           inkscape:connector-curvature="0"
           style="fill:none;fill-rule:evenodd;stroke:#191919;stroke-width:0.34999999;stroke-miterlimit:4;stroke-dasharray:none"
           d="M 0,0 0,0 60,0 60,0 0,0 Z"
           id="Box020_f0002" />
        <path
           inkscape:connector-curvature="0"
           style="fill:none;fill-rule:evenodd;stroke:#191919;stroke-width:0.34999999;stroke-miterlimit:4;stroke-dasharray:none"
           d="m 60,92 -60,0 0,0 60,0 0,0 z"
           id="Box020_f0003" />
        <path
           inkscape:connector-curvature="0"
           style="fill:none;fill-rule:evenodd;stroke:#191919;stroke-width:0.34999999;stroke-miterlimit:4;stroke-dasharray:none"
           d="M 60,0 0,0 0,92 60,92 60,0 Z"
           id="Box020_f0004" />
        <path
           inkscape:connector-curvature="0"
           style="fill:none;fill-rule:evenodd;stroke:#191919;stroke-width:0.34999999;stroke-miterlimit:4;stroke-dasharray:none"
           d="M 0,92 0,0 60,0 60,92 0,92 Z"
           id="Box020_f0005" />
        <title
           id="title3546">AussparungLasercutBox001</title>
      </g>
      <g
         style="fill:none"
         transform="matrix(1,0,0,-1,13.318143,164.84179)"
         id="Box019">
        <path
           inkscape:connector-curvature="0"
           style="fill:none;fill-rule:evenodd;stroke:#191919;stroke-width:0.34999999;stroke-miterlimit:4;stroke-dasharray:none"
           d="m -6,162 0,-63 0,0 0,63 0,0 z"
           id="Box019_f0000" />
        <path
           inkscape:connector-curvature="0"
           style="fill:none;fill-rule:evenodd;stroke:#191919;stroke-width:0.34999999;stroke-miterlimit:4;stroke-dasharray:none"
           d="m 66,99 0,0 0,63 0,0 0,-63 z"
           id="Box019_f0001" />
        <path
           inkscape:connector-curvature="0"
           style="fill:none;fill-rule:evenodd;stroke:#191919;stroke-width:0.34999999;stroke-miterlimit:4;stroke-dasharray:none"
           d="m -6,99 0,0 72,0 0,0 -72,0 z"
           id="Box019_f0002" />
        <path
           inkscape:connector-curvature="0"
           style="fill:none;fill-rule:evenodd;stroke:#191919;stroke-width:0.34999999;stroke-miterlimit:4;stroke-dasharray:none"
           d="m 66,162 -72,0 0,0 72,0 0,0 z"
           id="Box019_f0003" />
        <path
           inkscape:connector-curvature="0"
           style="fill:none;fill-rule:evenodd;stroke:#191919;stroke-width:0.34999999;stroke-miterlimit:4;stroke-dasharray:none"
           d="m 66,99 -72,0 0,63 72,0 0,-63 z"
           id="Box019_f0004" />
        <path
           inkscape:connector-curvature="0"
           style="fill:none;fill-rule:evenodd;stroke:#191919;stroke-width:0.34999999;stroke-miterlimit:4;stroke-dasharray:none"
           d="m -6,162 0,-63 72,0 0,63 -72,0 z"
           id="Box019_f0005" />
        <title
           id="title3555">AussparungLasercutBox</title>
      </g>
    </g>
    <path
       d="M 39.0,39.0 L 48.3157692345,39.0 L 48.3157692345,43.0 L 57.1457692271,43.0 L 57.1457692271,39.0 L 66.5465384652,39.0 L 66.5465384652,43.0 L 75.3765384579,43.0 L 75.3765384579,39.0 L 84.777307696,39.0 L 84.777307696,43.0 L 93.6073076886,43.0 L 93.6073076886,39.0 L 103.008076927,39.0 L 103.008076927,43.0 L 111.838076919,43.0 L 111.838076919,39.0 L 121.238846158,39.0 L 121.238846158,43.0 L 130.06884615,43.0 L 130.06884615,39.0 L 139.469615388,39.0 L 139.469615388,43.0 L 148.299615381,43.0 L 148.299615381,39.0 L 157.700384619,39.0 L 157.700384619,43.0 L 166.530384612,43.0 L 166.530384612,39.0 L 175.93115385,39.0 L 175.93115385,43.0 L 184.761153842,43.0 L 184.761153842,39.0 L 194.161923081,39.0 L 194.161923081,43.0 L 202.991923073,43.0 L 202.991923073,39.0 L 212.392692311,39.0 L 212.392692311,43.0 L 221.222692304,43.0 L 221.222692304,39.0 L 230.623461542,39.0 L 230.623461542,43.0 L 239.453461535,43.0 L 239.453461535,39.0 L 248.854230773,39.0 L 248.854230773,43.0 L 257.684230766,43.0 L 257.684230766,39.0 L 267.0,39.0 "
       style="stroke:#000000;fill:none"
       inkscape:label="part"
       id="path3633" />
    <path
       sodipodi:nodetypes="cccccccccc"
       inkscape:connector-curvature="0"
       d="m 267,39 0,9.227857 -4,0 0,8.83 4,0 0,81.884283 -4,0 0,8.83 4,0 0,9.22786"
       style="fill:none;stroke:#000000"
       inkscape:label="part"
       id="path3635" />
    <path
       d="M 267.0,157.0 L 257.684230766,157.0 L 257.684230766,153.0 L 248.854230773,153.0 L 248.854230773,157.0 L 239.453461535,157.0 L 239.453461535,153.0 L 230.623461542,153.0 L 230.623461542,157.0 L 221.222692304,157.0 L 221.222692304,153.0 L 212.392692311,153.0 L 212.392692311,157.0 L 202.991923073,157.0 L 202.991923073,153.0 L 194.161923081,153.0 L 194.161923081,157.0 L 184.761153842,157.0 L 184.761153842,153.0 L 175.93115385,153.0 L 175.93115385,157.0 L 166.530384612,157.0 L 166.530384612,153.0 L 157.700384619,153.0 L 157.700384619,157.0 L 148.299615381,157.0 L 148.299615381,153.0 L 139.469615388,153.0 L 139.469615388,157.0 L 130.06884615,157.0 L 130.06884615,153.0 L 121.238846158,153.0 L 121.238846158,157.0 L 111.838076919,157.0 L 111.838076919,153.0 L 103.008076927,153.0 L 103.008076927,157.0 L 93.6073076886,157.0 L 93.6073076886,153.0 L 84.777307696,153.0 L 84.777307696,157.0 L 75.3765384579,157.0 L 75.3765384579,153.0 L 66.5465384652,153.0 L 66.5465384652,157.0 L 57.1457692271,157.0 L 57.1457692271,153.0 L 48.3157692345,153.0 L 48.3157692345,157.0 L 39.0,157.0 "
       style="stroke:#000000;fill:none"
       inkscape:label="part"
       id="path3637" />
    <path
       d="M 39.0,157.0 L 39.0,147.772142853 L 43.0,147.772142853 L 43.0,138.942142861 L 39.0,138.942142861 L 39.0,129.629285711 L 43.0,129.629285711 L 43.0,120.799285718 L 39.0,120.799285718 L 39.0,111.486428568 L 43.0,111.486428568 L 43.0,102.656428575 L 39.0,102.656428575 L 39.0,93.3435714249 L 43.0,93.3435714249 L 43.0,84.5135714323 L 39.0,84.5135714323 L 39.0,75.200714282 L 43.0,75.200714282 L 43.0,66.3707142894 L 39.0,66.3707142894 L 39.0,57.0578571392 L 43.0,57.0578571392 L 43.0,48.2278571465 L 39.0,48.2278571465 L 39.0,39.0 "
       style="stroke:#000000;fill:none"
       inkscape:label="part"
       id="path3639" />
  </g>
  <g
     id="g3799"
     transform="translate(-267.71631,156.86471)">
    <path
       d="m 271.5,43 10.415,0 0,-4 9.17,0 0,4 10.415,0"
       style="fill:none;stroke:#000000"
       inkscape:label="part"
       id="path3641"
       inkscape:connector-curvature="0" />
    <path
       d="m 301.5,43 0,5.057857 4,0 0,9.17 -4,0 0,8.972857 4,0 0,9.17 -4,0 0,8.972857 4,0 0,9.17 -4,0 0,8.972859 4,0 0,9.17 -4,0 0,8.97286 4,0 0,9.17 -4,0 0,8.97285 4,0 0,9.17 -4,0 0,5.05786"
       style="fill:none;stroke:#000000"
       inkscape:label="part"
       id="path3643"
       inkscape:connector-curvature="0" />
    <path
       d="m 301.5,153 -10.415,0 0,4 -9.17,0 0,-4 -10.415,0"
       style="fill:none;stroke:#000000"
       inkscape:label="part"
       id="path3645"
       inkscape:connector-curvature="0" />
    <path
       sodipodi:nodetypes="cccccccccc"
       inkscape:connector-curvature="0"
       d="m 271.5,153 0,-5.05786 -4,0 0,-9.17 4,0 0,-81.544283 -4,0 0,-9.17 4,0 L 271.5,43"
       style="fill:none;stroke:#000000"
       inkscape:label="part"
       id="path3647" />
  </g>
  <g
     id="g3787">
    <path
       d="M 39.0,4.5 L 48.1457692271,4.5 L 48.1457692271,0.5 L 57.3157692345,0.5 L 57.3157692345,4.5 L 66.3765384579,4.5 L 66.3765384579,0.5 L 75.5465384652,0.5 L 75.5465384652,4.5 L 84.6073076886,4.5 L 84.6073076886,0.5 L 93.777307696,0.5 L 93.777307696,4.5 L 102.838076919,4.5 L 102.838076919,0.5 L 112.008076927,0.5 L 112.008076927,4.5 L 121.06884615,4.5 L 121.06884615,0.5 L 130.238846158,0.5 L 130.238846158,4.5 L 139.299615381,4.5 L 139.299615381,0.5 L 148.469615388,0.5 L 148.469615388,4.5 L 157.530384612,4.5 L 157.530384612,0.5 L 166.700384619,0.5 L 166.700384619,4.5 L 175.761153842,4.5 L 175.761153842,0.5 L 184.93115385,0.5 L 184.93115385,4.5 L 193.991923073,4.5 L 193.991923073,0.5 L 203.161923081,0.5 L 203.161923081,4.5 L 212.222692304,4.5 L 212.222692304,0.5 L 221.392692311,0.5 L 221.392692311,4.5 L 230.453461535,4.5 L 230.453461535,0.5 L 239.623461542,0.5 L 239.623461542,4.5 L 248.684230766,4.5 L 248.684230766,0.5 L 257.854230773,0.5 L 257.854230773,4.5 L 267.0,4.5 "
       style="stroke:#000000;fill:none"
       inkscape:label="part"
       id="path3657" />
    <path
       d="M 267.0,4.5 L 267.0,15.0850000037 L 263.0,15.0850000037 L 263.0,23.9149999963 L 267.0,23.9149999963 L 267.0,34.5 "
       style="stroke:#000000;fill:none"
       inkscape:label="part"
       id="path3659" />
    <path
       d="M 267.0,34.5 L 257.854230773,34.5 L 257.854230773,38.5 L 248.684230766,38.5 L 248.684230766,34.5 L 239.623461542,34.5 L 239.623461542,38.5 L 230.453461535,38.5 L 230.453461535,34.5 L 221.392692311,34.5 L 221.392692311,38.5 L 212.222692304,38.5 L 212.222692304,34.5 L 203.161923081,34.5 L 203.161923081,38.5 L 193.991923073,38.5 L 193.991923073,34.5 L 184.93115385,34.5 L 184.93115385,38.5 L 175.761153842,38.5 L 175.761153842,34.5 L 166.700384619,34.5 L 166.700384619,38.5 L 157.530384612,38.5 L 157.530384612,34.5 L 148.469615388,34.5 L 148.469615388,38.5 L 139.299615381,38.5 L 139.299615381,34.5 L 130.238846158,34.5 L 130.238846158,38.5 L 121.06884615,38.5 L 121.06884615,34.5 L 112.008076927,34.5 L 112.008076927,38.5 L 102.838076919,38.5 L 102.838076919,34.5 L 93.777307696,34.5 L 93.777307696,38.5 L 84.6073076886,38.5 L 84.6073076886,34.5 L 75.5465384652,34.5 L 75.5465384652,38.5 L 66.3765384579,38.5 L 66.3765384579,34.5 L 57.3157692345,34.5 L 57.3157692345,38.5 L 48.1457692271,38.5 L 48.1457692271,34.5 L 39.0,34.5 "
       style="stroke:#000000;fill:none"
       inkscape:label="part"
       id="path3661" />
    <path
       d="M 39.0,34.5 L 39.0,23.9149999963 L 43.0,23.9149999963 L 43.0,15.0850000037 L 39.0,15.0850000037 L 39.0,4.5 "
       style="stroke:#000000;fill:none"
       inkscape:label="part"
       id="path3663" />
  </g>
  <g
     id="g3805"
     transform="translate(-267.15187,156.86471)">
    <path
       d="m 306,39 9.31577,0 0,4 8.83,0 0,-4 9.40077,0 0,4 8.83,0 0,-4 9.40077,0 0,4 8.83,0 0,-4 9.40077,0 0,4 8.83,0 0,-4 9.40077,0 0,4 8.83,0 0,-4 9.40077,0 0,4 8.83,0 0,-4 9.40076,0 0,4 8.83,0 0,-4 9.40077,0 0,4 8.83,0 0,-4 9.40077,0 0,4 8.83,0 0,-4 9.40077,0 0,4 8.83,0 0,-4 9.40077,0 0,4 8.83,0 0,-4 9.40077,0 0,4 8.83,0 0,-4 L 534,39"
       style="fill:none;stroke:#000000"
       inkscape:label="part"
       id="path3649"
       inkscape:connector-curvature="0" />
    <path
       d="m 534,39 0,9.227857 -4,0 0,8.83 4,0 0,9.312857 -4,0 0,8.83 4,0 0,9.312857 -4,0 0,8.83 4,0 0,9.312859 -4,0 0,8.83 4,0 0,9.31286 -4,0 0,8.83 4,0 0,9.31285 -4,0 0,8.83 4,0 0,9.22786"
       style="fill:none;stroke:#000000"
       inkscape:label="part"
       id="path3651"
       inkscape:connector-curvature="0" />
    <path
       d="m 534,157 -9.31577,0 0,-4 -8.83,0 0,4 -9.40077,0 0,-4 -8.83,0 0,4 -9.40077,0 0,-4 -8.83,0 0,4 -9.40077,0 0,-4 -8.83,0 0,4 -9.40077,0 0,-4 -8.83,0 0,4 -9.40077,0 0,-4 -8.83,0 0,4 -9.40076,0 0,-4 -8.83,0 0,4 -9.40077,0 0,-4 -8.83,0 0,4 -9.40077,0 0,-4 -8.83,0 0,4 -9.40077,0 0,-4 -8.83,0 0,4 -9.40077,0 0,-4 -8.83,0 0,4 -9.40077,0 0,-4 -8.83,0 0,4 L 306,157"
       style="fill:none;stroke:#000000"
       inkscape:label="part"
       id="path3653"
       inkscape:connector-curvature="0" />
    <path
       d="m 306,157 0,-9.22786 4,0 0,-8.83 -4,0 0,-9.31285 4,0 0,-8.83 -4,0 0,-9.31286 4,0 0,-8.83 -4,0 0,-9.312859 4,0 0,-8.83 -4,0 0,-9.312857 4,0 0,-8.83 -4,0 0,-9.312857 4,0 0,-8.83 -4,0 L 306,39"
       style="fill:none;stroke:#000000"
       inkscape:label="part"
       id="path3655"
       inkscape:connector-curvature="0" />
    <g
       transform="translate(17.714813,62.107577)"
       id="g3748">
      <rect
         style="color:#000000;display:inline;overflow:visible;visibility:visible;opacity:1;fill:none;fill-opacity:1;fill-rule:evenodd;stroke:#00ff00;stroke-width:0.10000002;stroke-linecap:butt;stroke-linejoin:miter;stroke-miterlimit:4;stroke-dasharray:none;stroke-dashoffset:0;stroke-opacity:1;marker:none;enable-background:accumulate"
         id="rect3740"
         width="115.20001"
         height="59.900002"
         x="344.68518"
         y="-23.557577" />
      <ellipse
         style="color:#000000;display:inline;overflow:visible;visibility:visible;opacity:1;fill:none;fill-opacity:1;fill-rule:evenodd;stroke:#000000;stroke-width:0.10000002;stroke-linecap:butt;stroke-linejoin:miter;stroke-miterlimit:4;stroke-dasharray:none;stroke-dashoffset:0;stroke-opacity:1;marker:none;enable-background:accumulate"
         id="path3742"
         cx="354.78522"
         cy="25.942423"
         rx="3.1000001"
         ry="3.0999999" />
      <ellipse
         ry="3.0999999"
         rx="3.1000001"
         cy="26.392424"
         cx="449.4852"
         id="ellipse3744"
         style="color:#000000;display:inline;overflow:visible;visibility:visible;opacity:1;fill:none;fill-opacity:1;fill-rule:evenodd;stroke:#000000;stroke-width:0.09999999;stroke-linecap:butt;stroke-linejoin:miter;stroke-miterlimit:4;stroke-dasharray:none;stroke-dashoffset:0;stroke-opacity:1;marker:none;enable-background:accumulate" />
      <ellipse
         style="color:#000000;display:inline;overflow:visible;visibility:visible;opacity:1;fill:none;fill-opacity:1;fill-rule:evenodd;stroke:#000000;stroke-width:0.09999999;stroke-linecap:butt;stroke-linejoin:miter;stroke-miterlimit:4;stroke-dasharray:none;stroke-dashoffset:0;stroke-opacity:1;marker:none;enable-background:accumulate"
         id="ellipse3746"
         cx="419.28519"
         cy="6.242424"
         rx="3.1000001"
         ry="3.0999999" />
    </g>
  </g>
</svg>
